<?xml version="1.0" encoding="utf-8"?>
<!-- Generator: Adobe Illustrator 21.0.2, SVG Export Plug-In . SVG Version: 6.00 Build 0)  -->
<svg version="1.1" id="Layer_1" xmlns="http://www.w3.org/2000/svg" xmlns:xlink="http://www.w3.org/1999/xlink" x="0px" y="0px"
	 viewBox="0 0 1342.8 466.2" style="enable-background:new 0 0 1342.8 466.2;" xml:space="preserve">
<style type="text/css">
	.st0{fill:#44B99F;}
	.st1{fill:#FFF27D;}
	.st2{fill:#BA3C3C;}
	.st3{fill:#FFFFFF;}
</style>
<title>Asset 3</title>
<g id="Layer_2">
	<g id="Layer_1-2">
		<g id="Logo">
			<path class="st0" d="M278,3.6C236.6,51,38.2,230,239.6,303.8c0.4,0.2,0.9,0,1.1-0.3c12.9-16.4,31.6-126.2,33.4-159.3
				c0-1,1.7-0.9,1.8,0.1c4.5,30,10.1,131.8,8,160.5c0,0.6,0.7,0.9,1.3,0.7c100.4-40.8,155.4-120-5.7-301.9
				C279.1,3.2,278.5,3.2,278,3.6C278,3.6,278,3.6,278,3.6z"/>
			<path class="st1" d="M749.7,308.3v-88.8c0-37.4-29.7-67.8-66.2-67.8h-46.3v156.6L749.7,308.3z M637.8,308.3V151.7h-46.3
				c-36.6,0-66.2,30.4-66.2,67.8v88.8H637.8z M635,1c-36.9,0-66.8,29.9-66.8,66.8s29.9,66.8,66.8,66.8c36.9,0,66.8-29.9,66.8-66.8
				S671.9,1,635,1C635,1,635,1,635,1z"/>
			<path class="st2" d="M980.5,308.6c-79.9-0.1-90.8-33.7-84.6-78.4c6.5-48.5,26.7-94.4,68.8-136c3.4-3.7,5.7-5.6,11.9-5.6h91.5
				c8.4,0,9,2.5,11.9,5.6c42.2,41.6,62.3,87.5,68.8,136c6.3,44.9-4.8,78.6-85.8,78.4C1051.1,308.6,992.8,308.6,980.5,308.6z
				 M1073.2,3.3c-17,7.8-39.8,27.3-51.6,27.3s-34.6-19.5-51.6-27.3c-31.7-14.8-49.8,22.1-7.1,75.4c2.2,2.9,3.3,4.1,8,4.1h101.4
				c4.7,0,5.8-1.2,8-4.1C1123.1,25.4,1105-11.5,1073.2,3.3z"/>
		</g>
		<path class="st3" d="M93,372.7v84.9H82.4v-62.4c0-0.8,0-1.7,0.1-2.7s0.1-1.9,0.2-2.9L52,442.8c-0.8,1.7-2.5,2.7-4.4,2.7h-1.7
			c-1.9,0.1-3.6-1-4.4-2.7l-31.3-53.3c0.2,1.9,0.4,3.9,0.4,5.8v62.4H0v-84.9h8.9c0.8,0,1.7,0.1,2.5,0.3c0.7,0.3,1.3,0.9,1.7,1.7
			L44,426.9c0.5,0.9,1,1.9,1.5,3s0.9,2.1,1.3,3.1c0.4-1.1,0.8-2.1,1.3-3.2c0.4-1,0.9-2,1.5-3l30.3-52.2c0.3-0.7,0.9-1.3,1.7-1.6
			c0.8-0.2,1.7-0.3,2.5-0.3L93,372.7z"/>
		<path class="st3" d="M154.5,408.3c-0.3,0.4-0.6,0.7-1,1c-0.4,0.3-0.9,0.4-1.4,0.4c-0.7,0-1.5-0.3-2.1-0.7c-0.7-0.5-1.7-1-2.8-1.6
			c-1.3-0.7-2.7-1.2-4.1-1.6c-4.7-1.2-9.6-0.9-14.1,0.8c-2.3,1-4.4,2.6-6,4.5c-1.7,2.1-2.9,4.6-3.6,7.2c-0.8,3.1-1.3,6.2-1.2,9.4
			c0,3.3,0.4,6.5,1.3,9.7c0.8,2.6,2,5,3.7,7.1c1.6,1.9,3.6,3.4,5.8,4.4c2.4,1,5,1.6,7.6,1.5c2.3,0.1,4.5-0.2,6.7-0.9
			c1.5-0.5,3-1.2,4.3-2c1.1-0.7,2.1-1.4,2.9-2c0.6-0.6,1.4-0.9,2.3-0.9c0.8,0,1.6,0.3,2.1,1l3.1,3.9c-1.4,1.6-2.9,3-4.7,4.1
			c-1.8,1.2-3.7,2.1-5.6,2.9c-2,0.8-4.2,1.3-6.3,1.7c-2.2,0.4-4.5,0.5-6.7,0.5c-3.8,0-7.5-0.7-11-2.1c-3.3-1.3-6.4-3.4-8.8-6
			c-2.6-2.8-4.6-6.1-5.9-9.7c-2.8-8.3-2.8-17.2-0.2-25.5c1.2-3.6,3.2-7,5.7-9.8c2.6-2.8,5.8-5,9.3-6.5c4-1.6,8.4-2.4,12.7-2.3
			c4-0.1,8,0.6,11.8,2c3.3,1.3,6.4,3.3,9,5.8L154.5,408.3z"/>
		<path class="st3" d="M243.4,416.8v32.6c-4.4,3-9.3,5.4-14.4,6.9c-5.4,1.6-11.1,2.3-16.8,2.3c-6.6,0.1-13.2-1-19.5-3.2
			c-5.5-1.9-10.5-5-14.8-8.9c-4.1-3.8-7.3-8.5-9.4-13.7c-2.3-5.6-3.4-11.6-3.3-17.6c-0.1-6.1,1-12.1,3.2-17.7
			c2-5.2,5.2-9.9,9.1-13.7c4.1-3.9,9-7,14.4-8.9c6.1-2.2,12.5-3.2,19-3.1c3.3,0,6.6,0.2,9.9,0.7c2.9,0.5,5.7,1.2,8.4,2.1
			c2.5,0.9,4.9,2,7.2,3.4c2.2,1.3,4.3,2.8,6.2,4.5l-3.4,5.2c-0.5,0.7-1.2,1.3-2.1,1.5c-1,0.2-2,0-2.8-0.6c-1-0.6-2.1-1.2-3.4-2
			c-1.5-0.9-3.1-1.7-4.7-2.3c-2.1-0.8-4.3-1.4-6.6-1.9c-3-0.6-6-0.8-9-0.8c-4.7-0.1-9.3,0.7-13.7,2.3c-3.9,1.5-7.5,3.7-10.4,6.7
			c-2.9,3-5.2,6.6-6.6,10.5c-1.6,4.5-2.4,9.2-2.3,13.9c-0.1,4.9,0.7,9.7,2.4,14.3c1.5,4,3.8,7.7,6.9,10.7c3.1,3,6.8,5.3,10.8,6.7
			c8.2,2.7,17,3.1,25.3,1c3.3-0.9,6.4-2.1,9.4-3.7v-18.7h-13.9c-0.7,0-1.4-0.2-1.9-0.6c-0.5-0.4-0.7-1-0.7-1.6v-6.5H243.4z"/>
		<path class="st3" d="M271.2,378.8c0,1-0.2,2-0.6,2.9c-0.4,0.9-1,1.7-1.8,2.4c-0.7,0.7-1.6,1.3-2.6,1.6c-1,0.4-2,0.6-3.1,0.6
			c-1,0-2-0.2-3-0.6c-0.9-0.4-1.8-0.9-2.5-1.6c-0.7-0.7-1.3-1.5-1.7-2.4c-0.4-0.9-0.6-1.9-0.6-2.9c0-1,0.2-2,0.6-2.9
			c0.8-1.8,2.3-3.3,4.1-4.1c1-0.4,2-0.6,3-0.6c1.1,0,2.1,0.2,3.1,0.6c1.9,0.8,3.4,2.2,4.3,4.1C271,376.7,271.2,377.7,271.2,378.8z
			 M268.9,397.6v60h-11.1v-60H268.9z"/>
		<path class="st3" d="M295.2,370.3v87.3h-11.1v-87.3L295.2,370.3z"/>
		<path class="st3" d="M321.3,370.3v87.3h-11.1v-87.3L321.3,370.3z"/>
		<path class="st3" d="M419.6,386c-0.3,0.5-0.7,1-1.2,1.3c-0.5,0.3-1,0.5-1.6,0.4c-0.9-0.1-1.8-0.4-2.5-1c-1-0.7-2.2-1.4-3.6-2.2
			c-1.7-0.9-3.4-1.6-5.2-2.2c-2.4-0.7-4.8-1.1-7.3-1c-2.4-0.1-4.8,0.3-7.1,1c-1.9,0.6-3.6,1.6-5.2,2.8c-1.4,1.1-2.4,2.6-3.1,4.2
			c-0.7,1.6-1.1,3.4-1.1,5.2c-0.1,2.1,0.6,4.2,1.8,5.9c1.3,1.7,3,3,4.9,4c2.2,1.2,4.5,2.1,6.9,2.9l7.9,2.5c2.7,0.9,5.3,1.8,7.9,2.9
			c2.5,1,4.8,2.4,6.9,4.1c2,1.7,3.7,3.8,4.9,6.1c1.3,2.8,1.9,5.8,1.8,8.9c0,3.6-0.7,7.1-2,10.5c-1.3,3.2-3.3,6.1-5.8,8.5
			c-2.7,2.5-5.9,4.4-9.4,5.7c-4.1,1.4-8.4,2.1-12.7,2.1c-5.4,0.1-10.8-0.9-15.9-3c-4.6-1.9-8.7-4.6-12.2-8.1l3.5-5.5
			c0.3-0.4,0.7-0.8,1.2-1.1c0.5-0.3,1-0.4,1.6-0.4c0.7,0,1.3,0.3,1.8,0.6c0.7,0.4,1.4,0.9,2.3,1.6c0.9,0.6,1.9,1.3,3,2.1
			c1.2,0.8,2.5,1.5,3.8,2.1c1.6,0.7,3.2,1.2,4.9,1.6c2,0.4,4.1,0.6,6.2,0.6c2.6,0,5.2-0.3,7.7-1.1c2.1-0.7,4-1.7,5.7-3.2
			c1.5-1.3,2.8-3,3.6-4.9c0.9-2,1.3-4.2,1.2-6.3c0.1-2.2-0.6-4.5-1.8-6.3c-1.3-1.7-2.9-3.1-4.8-4.1c-2.2-1.2-4.5-2.1-6.9-2.8
			l-7.9-2.4c-2.7-0.8-5.3-1.7-7.9-2.8c-2.5-1-4.8-2.4-6.9-4.1c-2-1.8-3.7-3.9-4.8-6.4c-2.5-5.8-2.5-12.4,0-18.2
			c1.2-2.8,3.1-5.4,5.4-7.5c2.5-2.3,5.5-4.1,8.7-5.2c3.8-1.4,7.8-2.1,11.8-2c4.6,0,9.3,0.8,13.6,2.3c4,1.4,7.7,3.7,10.8,6.5
			L419.6,386z"/>
		<path class="st3" d="M488.4,397.6v60h-6.6c-1.4,0.1-2.7-0.8-3-2.2l-0.9-6.5c-2.7,2.8-5.8,5.2-9.2,7c-3.6,1.8-7.7,2.7-11.7,2.6
			c-3.1,0.1-6.2-0.5-9.1-1.6c-2.5-1-4.8-2.6-6.6-4.6c-1.8-2.1-3.2-4.5-4-7.2c-0.9-3-1.4-6.1-1.3-9.3v-38.3h11.1v38.3
			c0,4.5,1.1,8.1,3.3,10.5c2.2,2.5,5.5,3.7,10,3.7c3.2,0,6.4-0.7,9.2-2.2c3-1.6,5.6-3.6,7.9-6.1v-44.2H488.4z"/>
		<path class="st3" d="M539.7,407.5c-0.5,0.8-1.4,1.3-2.3,1.3c-0.7,0-1.5-0.3-2.1-0.6c-0.8-0.4-1.8-0.9-2.9-1.5
			c-1.3-0.6-2.7-1.1-4.1-1.5c-1.8-0.5-3.7-0.7-5.6-0.7c-1.7,0-3.4,0.2-5,0.7c-1.4,0.4-2.7,1-3.8,1.9c-1,0.7-1.8,1.7-2.4,2.8
			c-0.6,1-0.8,2.2-0.8,3.4c0,1.4,0.5,2.8,1.4,3.9c1.1,1.1,2.3,2,3.7,2.7c1.7,0.8,3.4,1.5,5.2,2c2,0.6,4,1.2,6,1.8s4,1.4,6,2.2
			c1.9,0.8,3.6,1.8,5.2,3c1.5,1.2,2.8,2.7,3.7,4.4c1,1.9,1.5,4,1.4,6.2c0,2.6-0.5,5.3-1.6,7.7c-1.1,2.4-2.6,4.4-4.6,6.1
			c-2.2,1.8-4.8,3.2-7.5,4.1c-3.3,1-6.8,1.5-10.2,1.5c-4.1,0.1-8.2-0.6-12-2c-3.3-1.2-6.4-3-9.1-5.2l2.6-4c0.3-0.5,0.7-0.9,1.2-1.2
			c0.5-0.3,1.1-0.4,1.8-0.4c0.9,0,1.7,0.3,2.4,0.8c0.8,0.6,1.8,1.2,3,1.8c1.4,0.8,2.8,1.4,4.3,1.8c2.1,0.6,4.2,0.9,6.4,0.8
			c1.9,0,3.8-0.2,5.7-0.8c1.5-0.5,2.9-1.2,4.1-2.2c1-0.8,1.9-1.9,2.4-3.1c0.5-1.2,0.8-2.5,0.8-3.8c0.1-1.5-0.4-3-1.4-4.1
			c-1-1.2-2.3-2.1-3.7-2.8c-1.7-0.8-3.5-1.5-5.3-2c-2-0.6-4-1.2-6-1.8c-2-0.6-4-1.4-6-2.2c-1.9-0.8-3.7-1.8-5.3-3
			c-3.4-2.7-5.3-6.9-5-11.2c0-2.3,0.5-4.5,1.5-6.6c1-2.2,2.5-4.1,4.4-5.6c2.1-1.7,4.5-3,7-3.8c3.1-1,6.3-1.5,9.5-1.4
			c3.8-0.1,7.6,0.6,11.2,1.9c3.2,1.2,6.1,2.9,8.6,5.1L539.7,407.5z"/>
		<path class="st3" d="M575.1,458.6c-5,0-8.8-1.3-11.5-4c-2.7-2.7-4-6.5-4-11.4v-36.7h-7.6c-0.6,0-1.2-0.2-1.7-0.6
			c-0.5-0.4-0.7-1.1-0.7-1.8v-4.2l10.4-1.2l2.6-18.5c0.2-1.2,1.3-2.1,2.6-2h5.6v20.7H589v7.6h-18.3v36c0,2.5,0.6,4.4,1.9,5.6
			c1.4,1.2,3.2,1.9,5,1.8c1,0,2-0.1,3-0.4c0.8-0.3,1.5-0.6,2.2-1c0.6-0.4,1.2-0.7,1.6-1c0.3-0.3,0.7-0.4,1.2-0.4
			c0.7,0,1.2,0.4,1.6,1l3.2,5c-2,1.8-4.4,3.1-6.9,4C580.7,458,577.9,458.6,575.1,458.6z"/>
		<path class="st3" d="M598.3,406.1c6.7-6.3,15.5-9.7,24.7-9.5c3.2-0.1,6.4,0.5,9.4,1.7c5.3,2,9.4,6.4,11.2,11.8
			c1,3,1.5,6.1,1.4,9.2v38.4h-4.9c-0.9,0.1-1.7-0.1-2.5-0.5c-0.7-0.5-1.2-1.2-1.4-2l-1.2-5.7c-1.6,1.4-3.2,2.7-4.9,3.9
			c-3.2,2.3-6.8,3.9-10.6,4.7c-2.2,0.4-4.4,0.6-6.6,0.6c-2.3,0-4.7-0.3-6.9-1c-2.1-0.6-4-1.6-5.7-2.9c-1.6-1.3-2.9-3-3.8-5
			c-1-2.2-1.5-4.6-1.4-7.1c0-2.4,0.7-4.8,2.1-6.9c1.7-2.5,4-4.5,6.7-5.8c3.8-2,7.8-3.4,12-4.2c6-1.2,12.1-1.8,18.2-1.9v-4.7
			c0-4.7-1.1-8.2-3.2-10.6s-5.2-3.6-9.3-3.6c-2.3-0.1-4.7,0.3-6.9,1c-1.7,0.6-3.3,1.3-4.8,2.2c-1.3,0.8-2.5,1.5-3.5,2.2
			c-0.8,0.6-1.9,1-2.9,1c-0.7,0-1.4-0.2-1.9-0.6c-0.5-0.4-1-0.8-1.4-1.4L598.3,406.1z M634.2,430.6c-4.4,0.1-8.7,0.5-13.1,1.2
			c-3,0.5-6,1.3-8.8,2.4c-1.9,0.7-3.6,1.9-4.9,3.5c-1,1.3-1.5,2.9-1.5,4.5c0,1.4,0.2,2.8,0.8,4.1c0.5,1.1,1.3,2.1,2.2,2.8
			c1,0.8,2.1,1.3,3.3,1.6c1.3,0.3,2.7,0.5,4.1,0.5c1.8,0,3.6-0.2,5.4-0.6c1.6-0.4,3.1-0.9,4.6-1.6c1.4-0.7,2.8-1.6,4.1-2.5
			c1.4-1,2.6-2.2,3.8-3.4L634.2,430.6z"/>
		<path class="st3" d="M672.9,378.8c0,1-0.2,2-0.7,2.9c-0.4,0.9-1,1.7-1.8,2.4c-0.7,0.7-1.6,1.3-2.6,1.6c-1,0.4-2,0.6-3.1,0.6
			c-1,0-2-0.2-3-0.6c-0.9-0.4-1.8-0.9-2.5-1.6c-0.7-0.7-1.3-1.5-1.7-2.4c-0.4-0.9-0.6-1.9-0.6-2.9c0-1,0.2-2,0.6-2.9
			c0.8-1.8,2.3-3.3,4.2-4.1c1-0.4,2-0.6,3-0.6c1.1,0,2.1,0.2,3.1,0.6c1.9,0.8,3.4,2.2,4.3,4.1C672.7,376.7,672.9,377.7,672.9,378.8z
			 M670.5,397.6v60h-11.1v-60H670.5z"/>
		<path class="st3" d="M696.1,406.3c1.3-1.4,2.8-2.8,4.4-4c1.5-1.2,3.2-2.2,4.9-3c1.7-0.9,3.6-1.5,5.5-2c2.1-0.5,4.2-0.7,6.3-0.7
			c3.1-0.1,6.2,0.5,9.1,1.6c2.5,1,4.8,2.6,6.6,4.6c1.8,2.1,3.2,4.6,4,7.2c0.9,3,1.4,6.1,1.4,9.3v38.2h-11.1v-38.2
			c0-4.5-1.1-8.1-3.3-10.6c-2.2-2.5-5.5-3.8-10-3.8c-3.2,0-6.4,0.8-9.2,2.2c-3,1.6-5.6,3.6-7.9,6.1v44.2h-11.1v-60h6.7
			c1.4-0.1,2.7,0.8,2.9,2.2L696.1,406.3z"/>
		<path class="st3" d="M750.7,406.1c6.7-6.3,15.5-9.7,24.7-9.5c3.2-0.1,6.4,0.5,9.4,1.7c5.3,2,9.5,6.4,11.2,11.8
			c1,3,1.5,6.1,1.4,9.2v38.4h-4.9c-0.9,0.1-1.7-0.1-2.5-0.5c-0.7-0.5-1.2-1.2-1.4-2l-1.2-5.7c-1.6,1.4-3.2,2.7-4.9,3.9
			c-3.2,2.3-6.8,3.9-10.6,4.6c-2.2,0.4-4.4,0.6-6.6,0.6c-2.3,0-4.7-0.3-6.9-1c-2.1-0.6-4-1.6-5.7-2.9c-1.6-1.3-2.9-3-3.8-5
			c-1-2.2-1.5-4.6-1.4-7.1c0-2.4,0.7-4.8,2.1-6.9c1.7-2.5,4-4.5,6.7-5.8c3.8-2,7.8-3.4,12-4.2c6-1.2,12.1-1.8,18.2-1.9v-4.7
			c0-4.7-1.1-8.2-3.2-10.6s-5.2-3.6-9.3-3.6c-2.3-0.1-4.7,0.3-6.9,1c-1.7,0.6-3.3,1.3-4.8,2.2c-1.3,0.8-2.5,1.5-3.5,2.2
			c-0.8,0.6-1.9,1-2.9,1c-0.7,0-1.4-0.2-1.9-0.6c-0.5-0.4-1-0.8-1.4-1.4L750.7,406.1z M786.5,430.6c-4.4,0.1-8.7,0.5-13.1,1.2
			c-3,0.5-6,1.3-8.8,2.4c-1.9,0.7-3.6,1.9-4.9,3.5c-1,1.3-1.5,2.9-1.5,4.5c0,1.4,0.2,2.8,0.8,4.1c0.5,1.1,1.3,2.1,2.2,2.8
			c1,0.8,2.1,1.3,3.3,1.6c1.3,0.3,2.7,0.5,4.1,0.5c1.8,0,3.6-0.2,5.4-0.6c1.6-0.4,3.1-0.9,4.6-1.6c1.4-0.7,2.8-1.6,4.1-2.5
			c1.4-1,2.6-2.2,3.8-3.4L786.5,430.6z"/>
		<path class="st3" d="M822.8,406.3c2.6-2.8,5.6-5.2,9-7c3.6-1.8,7.6-2.7,11.6-2.6c3.4-0.1,6.8,0.6,10,2c2.9,1.3,5.5,3.3,7.6,5.8
			c2.2,2.8,3.8,5.9,4.8,9.3c1.1,4,1.7,8.1,1.7,12.3c0.1,4.5-0.6,9-1.9,13.3c-1.1,3.7-2.9,7.2-5.4,10.2c-2.3,2.8-5.3,5.1-8.6,6.6
			c-3.6,1.6-7.4,2.4-11.3,2.3c-7.1,0.4-13.8-2.8-18-8.5l-0.6,5.5c-0.2,1.4-1.5,2.4-2.9,2.2h-7.2v-87.3h11.2L822.8,406.3z
			 M822.8,443.2c1.7,2.4,4,4.3,6.7,5.5c2.5,1.1,5.3,1.6,8,1.6c5.9,0,10.5-2,13.7-6c3.2-4,4.8-9.9,4.8-17.8c0-7.3-1.4-12.7-4.2-16.2
			c-2.8-3.5-6.8-5.2-12-5.2c-3.3-0.1-6.6,0.7-9.5,2.4c-2.9,1.8-5.4,4-7.5,6.7L822.8,443.2z"/>
		<path class="st3" d="M890.6,370.3v87.3h-11.1v-87.3L890.6,370.3z"/>
		<path class="st3" d="M957.1,449.2c-1.4,1.6-3.1,3-4.9,4.1c-1.9,1.2-4,2.1-6.2,2.9c-2.2,0.8-4.5,1.3-6.8,1.7
			c-2.3,0.4-4.6,0.6-6.9,0.6c-4.1,0-8.2-0.7-12.1-2.1c-3.6-1.3-6.8-3.4-9.5-6.2c-2.8-2.8-4.9-6.3-6.3-10c-1.6-4.4-2.3-9.1-2.2-13.8
			c0-4,0.6-8,2-11.7c1.3-3.5,3.3-6.7,5.8-9.5c2.6-2.7,5.8-4.9,9.3-6.3c3.9-1.6,8.1-2.3,12.3-2.3c3.6,0,7.1,0.6,10.5,1.8
			c6.4,2.3,11.5,7.3,13.9,13.6c1.4,3.6,2.1,7.5,2,11.4c0.1,1.1-0.1,2.3-0.6,3.3c-0.5,0.6-1.3,0.9-2.1,0.8h-42.2
			c0,3.4,0.6,6.7,1.7,9.9c0.9,2.6,2.3,5,4.1,7c1.7,1.9,3.9,3.3,6.2,4.2c2.6,1,5.3,1.4,8.1,1.4c2.4,0,4.9-0.3,7.2-0.9
			c1.8-0.5,3.5-1.2,5.2-2c1.3-0.6,2.5-1.3,3.7-2c0.7-0.5,1.6-0.9,2.5-0.9c0.8,0,1.6,0.3,2.1,1L957.1,449.2z M948.1,421.1
			c0-2.3-0.3-4.6-1.1-6.7c-0.7-2-1.8-3.8-3.2-5.3c-1.4-1.5-3.2-2.7-5.1-3.4c-2.2-0.8-4.5-1.2-6.8-1.2c-5.3,0-9.5,1.5-12.6,4.4
			c-3.1,2.9-5,7-5.8,12.2L948.1,421.1z"/>
		<path class="st3" d="M1061.4,448.3l-0.1,9.4h-55.1v-84.9h55.1v9.4h-43v28.2h34.8v9h-34.8v29L1061.4,448.3z"/>
		<path class="st3" d="M1122.6,397.6l-25.8,60h-10l-25.8-60h9c0.8,0,1.6,0.2,2.2,0.6c0.5,0.4,1,0.9,1.2,1.5l16,38.6
			c0.5,1.5,0.9,2.9,1.3,4.3c0.4,1.4,0.7,2.8,1.1,4.1c0.3-1.4,0.7-2.8,1.1-4.1c0.4-1.4,0.8-2.8,1.4-4.3l16.2-38.6
			c0.5-1.3,1.9-2.2,3.3-2.2L1122.6,397.6z"/>
		<path class="st3" d="M1179.4,449.2c-1.4,1.6-3.1,3-4.9,4.1c-1.9,1.2-4,2.1-6.2,2.9c-2.2,0.8-4.5,1.3-6.8,1.7
			c-2.3,0.4-4.6,0.6-6.9,0.6c-4.1,0-8.2-0.7-12.1-2.1c-3.6-1.3-6.8-3.4-9.6-6.2c-2.8-2.8-4.9-6.3-6.3-10c-1.6-4.4-2.3-9.1-2.2-13.8
			c0-4,0.6-8,2-11.7c1.3-3.5,3.3-6.7,5.8-9.5c2.6-2.7,5.8-4.9,9.3-6.3c3.9-1.6,8.1-2.3,12.3-2.3c3.6,0,7.1,0.6,10.5,1.8
			c6.4,2.3,11.5,7.3,13.9,13.6c1.4,3.6,2.1,7.5,2,11.4c0.1,1.1-0.1,2.3-0.6,3.3c-0.5,0.6-1.3,0.9-2.1,0.8h-42.2
			c0,3.4,0.6,6.7,1.7,9.9c0.9,2.6,2.3,5,4.1,7c1.7,1.9,3.9,3.3,6.2,4.2c2.6,1,5.3,1.4,8.1,1.4c2.4,0,4.9-0.3,7.2-0.9
			c1.8-0.5,3.5-1.2,5.2-2c1.3-0.6,2.5-1.3,3.7-2c0.7-0.5,1.6-0.9,2.5-0.9c0.8,0,1.6,0.3,2.1,1L1179.4,449.2z M1170.4,421.1
			c0-2.3-0.3-4.6-1.1-6.7c-0.7-2-1.8-3.8-3.2-5.3c-1.4-1.5-3.2-2.7-5.1-3.4c-2.2-0.8-4.5-1.2-6.8-1.2c-5.3,0-9.5,1.5-12.6,4.4
			s-5,7-5.8,12.2L1170.4,421.1z"/>
		<path class="st3" d="M1202,406.3c1.3-1.4,2.8-2.8,4.4-4c1.5-1.2,3.2-2.2,4.9-3c1.7-0.9,3.6-1.5,5.5-2c2.1-0.5,4.2-0.7,6.3-0.7
			c3.1-0.1,6.2,0.5,9.1,1.6c2.5,1,4.8,2.6,6.6,4.6c1.8,2.1,3.2,4.6,4,7.2c0.9,3,1.4,6.1,1.4,9.3v38.2H1233v-38.2
			c0-4.5-1.1-8.1-3.3-10.6s-5.5-3.8-10-3.8c-3.2,0-6.4,0.8-9.2,2.2c-3,1.6-5.6,3.6-7.9,6.1v44.2h-11.2v-60h6.7
			c1.4-0.1,2.7,0.8,2.9,2.2L1202,406.3z"/>
		<path class="st3" d="M1276.6,458.6c-5,0-8.8-1.3-11.5-4c-2.7-2.7-4-6.5-4-11.4v-36.7h-7.6c-0.6,0-1.2-0.2-1.7-0.6
			c-0.5-0.4-0.7-1.1-0.7-1.8v-4.2l10.4-1.2l2.6-18.5c0.2-1.2,1.3-2.1,2.6-2h5.6v20.7h18.3v7.6h-18.3v36c0,2.5,0.6,4.4,1.9,5.6
			c1.4,1.2,3.2,1.9,5,1.8c1,0,2-0.1,3-0.4c0.8-0.3,1.5-0.6,2.2-1c0.6-0.4,1.2-0.7,1.6-1c0.3-0.3,0.7-0.4,1.2-0.4
			c0.7,0,1.2,0.4,1.6,1l3.2,5c-2,1.8-4.4,3.1-6.9,4C1282.3,458,1279.5,458.6,1276.6,458.6z"/>
		<path class="st3" d="M1339.2,407.5c-0.5,0.8-1.4,1.3-2.3,1.3c-0.7,0-1.5-0.3-2.1-0.6c-0.8-0.4-1.8-0.9-2.9-1.5
			c-1.3-0.6-2.7-1.1-4.1-1.5c-1.8-0.5-3.7-0.7-5.6-0.7c-1.7,0-3.4,0.2-5.1,0.7c-1.4,0.4-2.7,1-3.8,1.9c-1,0.7-1.8,1.7-2.4,2.8
			c-0.6,1-0.8,2.2-0.8,3.4c0,1.4,0.5,2.8,1.4,3.9c1.1,1.1,2.3,2,3.7,2.7c1.7,0.8,3.4,1.5,5.2,2c2,0.6,4,1.2,6,1.8s4,1.4,6,2.2
			c1.9,0.8,3.6,1.8,5.2,3c1.5,1.2,2.8,2.7,3.7,4.4c1,1.9,1.5,4,1.4,6.2c0,2.6-0.5,5.3-1.6,7.7c-1.1,2.4-2.6,4.4-4.6,6.1
			c-2.2,1.8-4.8,3.2-7.5,4.1c-3.3,1-6.8,1.5-10.2,1.5c-4.1,0.1-8.2-0.6-12-2c-3.3-1.2-6.4-3-9.1-5.2l2.6-4c0.3-0.5,0.7-0.9,1.2-1.2
			c0.5-0.3,1.1-0.4,1.8-0.4c0.9,0,1.7,0.3,2.4,0.8c0.8,0.6,1.8,1.2,3,1.8c1.4,0.8,2.8,1.4,4.3,1.8c2.1,0.6,4.2,0.9,6.4,0.8
			c1.9,0,3.8-0.2,5.7-0.8c1.5-0.5,2.9-1.2,4.1-2.2c1-0.8,1.9-1.9,2.4-3.1c0.5-1.2,0.8-2.5,0.8-3.8c0.1-1.5-0.4-3-1.4-4.1
			c-1-1.2-2.3-2.1-3.7-2.8c-1.7-0.8-3.5-1.5-5.3-2c-2-0.6-4-1.2-6.1-1.8c-2-0.6-4.1-1.4-6.1-2.2c-1.9-0.8-3.7-1.8-5.3-3
			c-3.4-2.7-5.3-6.8-5.1-11.1c0-2.3,0.5-4.5,1.5-6.6c1-2.2,2.5-4.1,4.4-5.6c2.1-1.7,4.5-3,7-3.8c3.1-1,6.3-1.5,9.5-1.4
			c3.8-0.1,7.6,0.6,11.2,1.9c3.2,1.2,6.1,2.9,8.6,5.1L1339.2,407.5z"/>
		<path class="st3" d="M1025.1,245.9c3.3-0.1,6.6-0.8,9.7-2c2.7-1.1,5.1-2.7,7.2-4.7c2-1.9,3.5-4.2,4.5-6.7c1-2.6,1.5-5.4,1.5-8.1
			c0.1-2.6-0.5-5.2-1.8-7.5c-1.2-2-2.8-3.8-4.7-5.1c-2.1-1.4-4.4-2.6-6.8-3.4c-2.6-0.9-5.2-1.8-7.9-2.6l-2.3-0.7
			c-2.8-0.8-5.5-1.7-8.1-2.8c-2.5-0.9-4.9-2.2-7-3.8c-2.1-1.5-3.8-3.5-5-5.7c-1.3-2.6-2-5.6-1.9-8.5c0-2.6,0.5-5.3,1.6-7.7
			c1-2.5,2.6-4.7,4.6-6.6c2.2-2,4.7-3.6,7.5-4.6c3.2-1.2,6.7-1.9,10.2-1.9l0.4-10.7c0-0.9,0.4-1.3,1.2-1.3h1.2l-0.5,12
			c3.7,0.1,7.4,0.9,10.9,2.3c3.3,1.5,6.3,3.5,8.8,6.1l-0.7,1c-0.2,0.4-0.6,0.6-1,0.6c-0.7-0.1-1.4-0.5-1.8-1.1
			c-1-0.9-2.1-1.7-3.2-2.4c-1.7-1-3.4-1.9-5.2-2.5c-2.5-0.9-5.1-1.3-7.8-1.4h-2.4c-3,0.1-6,0.6-8.9,1.7c-2.4,0.9-4.6,2.3-6.5,4
			c-1.7,1.6-3,3.5-3.9,5.7c-0.9,2.1-1.3,4.4-1.3,6.6c-0.1,2.4,0.5,4.8,1.6,7c1,1.9,2.5,3.6,4.2,4.9c1.9,1.4,3.9,2.6,6.1,3.4
			c2.3,0.9,4.7,1.8,7.2,2.6l2.3,0.7c3,0.9,5.9,1.9,8.8,2.8c2.7,0.9,5.3,2.2,7.7,3.8c2.2,1.5,4.1,3.5,5.5,5.8
			c1.5,2.6,2.2,5.6,2.1,8.7c0,3.2-0.6,6.4-1.8,9.4c-1.1,2.9-2.9,5.6-5.1,7.8c-2.3,2.3-5.1,4.1-8.2,5.3c-3.5,1.4-7.3,2.1-11.1,2.2
			l-0.6,13.6c0,0.9-0.4,1.3-1.2,1.3h-1.3l0.6-14.9c-2.6,0-5.1-0.3-7.6-0.9c-2.2-0.5-4.3-1.2-6.4-2.2c-1.9-0.9-3.8-2-5.4-3.4
			c-1.7-1.3-3.3-2.8-4.7-4.4l0.8-1.1c0.2-0.2,0.3-0.3,0.5-0.4c0.2-0.1,0.4-0.2,0.7-0.1c0.5,0.1,0.9,0.3,1.2,0.7l2,1.8
			c0.9,0.8,1.9,1.6,2.9,2.3c1.3,0.9,2.6,1.7,4.1,2.4c1.7,0.8,3.5,1.4,5.3,1.9c2.2,0.5,4.5,0.8,6.9,0.8L1025.1,245.9z"/>
	</g>
</g>
</svg>
