<svg xmlns="http://www.w3.org/2000/svg" viewBox="0 0 289.52 62.12"><defs><style>.cls-1{fill:#fff;}</style></defs><title>Asset 2</title><g id="Layer_2" data-name="Layer 2"><g id="Postcard"><g id="Side_1" data-name="Side 1"><path class="cls-1" d="M3.66,16.91v1.63c0,1.38,1.79,2.25,3.85,2.25,2.22,0,3.79-1,3.79-2.71,0-2.19-2.49-2.92-5-3.91C3.35,13,.49,11.77.49,7.83.49,3.43,4,1.74,7.82,1.74c3.45,0,6.92,1.29,6.92,3.85V8.45H11.08V7c0-1.11-1.63-1.69-3.26-1.69C6,5.28,4.55,6,4.55,7.68c0,2,2.06,2.68,4.31,3.57,3.29,1.14,6.52,2.49,6.52,6.56,0,4.46-3.75,6.52-7.88,6.52C3.88,24.33,0,22.7,0,19.4V16.91Z"/><path class="cls-1" d="M19.53,11.19H17.1V8.26h6.34v9.42c0,1.88.49,3.17,2.46,3.17,2.71,0,4.34-2.77,4.34-5.6V11.19h-2.4V8.26h6.31V20.39a.59.59,0,0,0,.68.68h1.51V24H32.45c-1.38,0-2-.65-2-1.75v-.58c0-.22,0-.4,0-.52v-.22h-.06a6.15,6.15,0,0,1-5.72,3.45c-3.11,0-5.14-1.69-5.14-6Z"/><path class="cls-1" d="M38.21,18.73h3.32v.92c0,1.08,1.45,1.63,3.08,1.63s2.68-.52,2.68-1.6c0-1.29-1.48-1.69-3.57-2.43-2.28-.83-5-1.85-5-4.86,0-3.32,3.35-4.49,6.19-4.49,2.28,0,5.66.89,5.66,3.26v2H47.26v-.89c0-.83-.92-1.29-2.31-1.29-1.23,0-2.28.43-2.28,1.42,0,1.29,1.54,1.85,3.29,2.34,2.4.74,5.23,1.75,5.23,4.83s-3,4.77-6.62,4.77c-2.83,0-6.37-1.23-6.37-3.79Z"/><path class="cls-1" d="M55,11.19h-2.4V8.26h2.52V4h3.79V8.26h3.57v2.92H58.94V17.8a2.81,2.81,0,0,0,3.14,3c.22,0,.4,0,.52,0h.18V24l-.34.06a6.73,6.73,0,0,1-.86,0c-2.22,0-6.56-.65-6.56-5.91Z"/><path class="cls-1" d="M73.36,14.26h1v-.52c0-2-1.26-2.71-2.89-2.71a7.55,7.55,0,0,0-3.08.74,8.18,8.18,0,0,0-1.35.77L65.58,9.83a8.12,8.12,0,0,1,1.69-1,11,11,0,0,1,4.52-1c4.22,0,6.46,2.15,6.46,6.19v6.28a.59.59,0,0,0,.68.68h1.42V24H76.66c-1.45,0-2-.77-2-1.66v-.18a2.83,2.83,0,0,1,.06-.58.6.6,0,0,0,0-.22h-.06a5.77,5.77,0,0,1-1.11,1.51,5.37,5.37,0,0,1-3.85,1.51c-2.71,0-5.2-1.57-5.2-4.77C64.53,14.76,70.84,14.26,73.36,14.26ZM70.75,21.4c2.12,0,3.63-2.28,3.63-4.25v-.52h-.65c-1.57,0-5.26.25-5.26,2.62A2.1,2.1,0,0,0,70.75,21.4Z"/><path class="cls-1" d="M82.27,21h2.28V11.19H82.12V8.26h6.34V21h2.25V24H82.27ZM84.52,2.11h3.94V5.59H84.52Z"/><path class="cls-1" d="M92.72,21H95V11.86a.59.59,0,0,0-.68-.68H92.56V8.26h4.12c1.39,0,2,.65,2,1.75v.71a2.18,2.18,0,0,1,0,.46.59.59,0,0,0,0,.22h.06a6.3,6.3,0,0,1,5.79-3.51c3.35,0,5.26,1.78,5.26,6V21H112V24h-6.16V14.67c0-1.94-.52-3.2-2.49-3.2-2.83,0-4.49,2.71-4.49,5.45V21h2.25V24H92.72Z"/><path class="cls-1" d="M122.5,14.26h1v-.52c0-2-1.26-2.71-2.89-2.71a7.55,7.55,0,0,0-3.08.74,8.18,8.18,0,0,0-1.35.77l-1.45-2.71a8.12,8.12,0,0,1,1.69-1,11,11,0,0,1,4.52-1c4.22,0,6.46,2.15,6.46,6.19v6.28a.59.59,0,0,0,.68.68h1.42V24H125.8c-1.45,0-2-.77-2-1.66v-.18a2.83,2.83,0,0,1,.06-.58.6.6,0,0,0,0-.22h-.06a5.77,5.77,0,0,1-1.11,1.51,5.37,5.37,0,0,1-3.85,1.51c-2.71,0-5.2-1.57-5.2-4.77C113.67,14.76,120,14.26,122.5,14.26Zm-2.62,7.14c2.12,0,3.63-2.28,3.63-4.25v-.52h-.65c-1.57,0-5.26.25-5.26,2.62A2.1,2.1,0,0,0,119.89,21.4Z"/><path class="cls-1" d="M132,5h-2.4V2.11h6.31v6.8a8.68,8.68,0,0,1,0,1,1.77,1.77,0,0,0,0,.37h.06A4.42,4.42,0,0,1,137,9.06a5.87,5.87,0,0,1,3.6-1.17c4.28,0,7,3.35,7,8.22s-3,8.22-7.23,8.22a5.51,5.51,0,0,1-3.63-1.26,5,5,0,0,1-1-1.23h-.06a1.38,1.38,0,0,0,0,.34,6.46,6.46,0,0,1,0,.83v1H132Zm7.69,16c2.12,0,4-1.75,4-4.86s-1.57-4.92-3.91-4.92c-2.06,0-3.94,1.51-3.94,5C135.78,18.64,137,21,139.66,21Z"/><path class="cls-1" d="M149.52,21h2.28V11.19h-2.43V8.26h6.34V21H158V24h-8.43Zm2.25-18.93h3.94V5.59h-3.94Z"/><path class="cls-1" d="M160.49,5h-2.43V2.11h6.31V18.73c0,1.45.28,2.15,1.6,2.15.22,0,.4,0,.52,0h.22V24l-.43.06a9,9,0,0,1-1,0c-2.49,0-4.8-.83-4.8-5.11Z"/><path class="cls-1" d="M168.72,21H171V11.19h-2.43V8.26h6.34V21h2.25V24h-8.43ZM171,2.11h3.94V5.59H171Z"/><path class="cls-1" d="M180.11,11.19h-2.4V8.26h2.52V4H184V8.26h3.57v2.92H184V17.8a2.81,2.81,0,0,0,3.14,3c.22,0,.4,0,.52,0h.18V24l-.34.06a6.73,6.73,0,0,1-.86,0c-2.22,0-6.56-.65-6.56-5.91Z"/><path class="cls-1" d="M190.91,26.48a3.45,3.45,0,0,0,.65.37,3.77,3.77,0,0,0,1.72.37A2.92,2.92,0,0,0,196,25.41l.43-1-5.39-13.23h-1.88V8.26h7.73v2.92H195.1L198,19.13a8.33,8.33,0,0,1,.28,1.11,3.44,3.44,0,0,1,.06.52h.09l.09-.52a9,9,0,0,1,.34-1.11l2.83-7.94h-1.82V8.26h7.42v2.92h-1.79L199.68,26a6.33,6.33,0,0,1-6.22,4.43,7.52,7.52,0,0,1-2.77-.52,4.77,4.77,0,0,1-1-.55Z"/><path class="cls-1" d="M.06,52.73H2.68V36.95H.06v-3H10.53a9.51,9.51,0,0,1,3.69.55,6.68,6.68,0,0,1,3.91,6.46c0,3.11-1.6,5.76-4.15,6.65a10.56,10.56,0,0,1-3.35.43H6.71v4.74H9.36v3H.06Zm10-8a5.16,5.16,0,0,0,2.22-.43,3.5,3.5,0,0,0,1.79-3.42,3.57,3.57,0,0,0-1.6-3.26,4.66,4.66,0,0,0-2.37-.52H6.71v7.63Z"/><path class="cls-1" d="M20.31,52.83h2.28V43.66a.59.59,0,0,0-.68-.68H20.15V40.05h4.09c1.39,0,2.09.65,2.09,1.91v.92a5,5,0,0,1,0,.71.85.85,0,0,0,0,.28h.06a5.4,5.4,0,0,1,5-4,2.19,2.19,0,0,1,.49,0,.6.6,0,0,0,.22,0v3.85a.85.85,0,0,1-.28,0,4.55,4.55,0,0,0-.68,0c-3.17,0-4.59,2.77-4.59,5.72v3.42h2.25v2.92H20.31Z"/><path class="cls-1" d="M41.86,39.69c4.8,0,8.65,3.42,8.65,8.22s-3.85,8.22-8.62,8.22-8.65-3.39-8.65-8.22S37.09,39.69,41.86,39.69Zm0,13.11a4.9,4.9,0,1,0-4.68-4.89A4.65,4.65,0,0,0,41.89,52.8Z"/><path class="cls-1" d="M50.4,58.92a.54.54,0,0,1,.18,0,1.91,1.91,0,0,0,.49,0,2.81,2.81,0,0,0,3.14-3V43H51.79V40.05h6.34V56.12c0,5.26-4.43,6-6.56,6a7,7,0,0,1-.86,0L50.4,62Zm3.82-25h3.94v3.48H54.22Z"/><path class="cls-1" d="M69.21,39.69c4.52,0,7,3.29,7,7.45a8.08,8.08,0,0,1,0,.83l-.06.49H65.24a4.54,4.54,0,0,0,4.71,4.37A6.58,6.58,0,0,0,73.18,52a8,8,0,0,0,1.32-.83L76,53.93A8.86,8.86,0,0,1,74.32,55a9.92,9.92,0,0,1-4.65,1.11,8.06,8.06,0,0,1-8.43-8.22C61.24,43.07,64.5,39.69,69.21,39.69Zm3,6.46c-.09-2.19-1.35-3.45-3-3.45a3.8,3.8,0,0,0-3.79,3.45Z"/><path class="cls-1" d="M86.74,39.69c2.62,0,6.43,1,6.43,3.75v2.15H89.78v-1c0-1.08-1.6-1.54-2.92-1.54-2.86,0-4.62,2-4.62,4.83a4.7,4.7,0,0,0,4.92,5,8.24,8.24,0,0,0,4.89-1.91l1.38,2.77A9.9,9.9,0,0,1,87,56.12c-4.59,0-8.65-3.14-8.65-8.19A8.16,8.16,0,0,1,86.74,39.69Z"/><path class="cls-1" d="M97.37,43H95V40.05H97.5V35.78h3.79v4.28h3.57V43h-3.57V49.6a2.81,2.81,0,0,0,3.14,3c.22,0,.4,0,.52,0h.18v3.2l-.34.06a6.73,6.73,0,0,1-.86,0c-2.22,0-6.56-.65-6.56-5.91Z"/><path class="cls-1" d="M107,50.52h3.32v.92c0,1.08,1.45,1.63,3.08,1.63s2.68-.52,2.68-1.6c0-1.29-1.48-1.69-3.57-2.43-2.28-.83-5-1.85-5-4.86,0-3.32,3.35-4.49,6.19-4.49,2.28,0,5.66.89,5.66,3.26v2H116v-.89c0-.83-.92-1.29-2.31-1.29-1.23,0-2.28.43-2.28,1.42,0,1.29,1.54,1.85,3.29,2.34,2.4.74,5.23,1.75,5.23,4.83s-3,4.77-6.62,4.77c-2.83,0-6.37-1.23-6.37-3.79Z"/><path class="cls-1" d="M130.33,52.73h2.62V36.95h-2.62v-3h15.6v5.66h-3.45V37.32H137v6.28h7.11v3.23H137v5.91h2.89v3h-9.54Z"/><path class="cls-1" d="M150,43h-2.43V40.05h6.34v9.42c0,1.88.49,3.17,2.46,3.17,2.71,0,4.34-2.77,4.34-5.6V43h-2.4V40.05h6.31V52.18a.59.59,0,0,0,.68.68h1.51v2.89h-3.88c-1.38,0-2-.65-2-1.75v-.58c0-.22,0-.4,0-.52v-.22h-.06a6.15,6.15,0,0,1-5.72,3.45c-3.11,0-5.14-1.69-5.14-6Z"/><path class="cls-1" d="M168.87,52.83h2.28V43.66a.59.59,0,0,0-.68-.68h-1.75V40.05h4.12c1.39,0,2,.65,2,1.75v.71a2.18,2.18,0,0,1,0,.46.59.59,0,0,0,0,.22h.06a6.3,6.3,0,0,1,5.79-3.51c3.35,0,5.26,1.78,5.26,6v7.17h2.28v2.92H182V46.46c0-1.94-.52-3.2-2.49-3.2-2.83,0-4.49,2.71-4.49,5.45v4.12h2.25v2.92h-8.43Z"/><path class="cls-1" d="M196.72,39.69a5.26,5.26,0,0,1,3.51,1.11,5.72,5.72,0,0,1,1,1.11h.06a1,1,0,0,0,0-.31,6,6,0,0,1,0-.8v-4h-2.43V33.9h6.31V52.15a.59.59,0,0,0,.68.68h1.42v2.92h-3.69c-1.45,0-2-.77-2-1.66V53.9a2.71,2.71,0,0,1,.06-.52.55.55,0,0,0,0-.19h-.06a5.49,5.49,0,0,1-1.11,1.45,5.76,5.76,0,0,1-4,1.48c-4.19,0-6.86-3.39-6.86-8.22C189.55,42.92,192.47,39.69,196.72,39.69Zm.65,13.14c2.09,0,4-1.48,4-4.83,0-2.55-1.26-5-3.85-5-2.22,0-4,1.75-4,4.86S195.06,52.83,197.37,52.83Z"/><g id="Bird"><path class="cls-1" d="M270.19,31.06c2.34-2,4.38-3.07,6.18-3.16l-1.07-.63a4.5,4.5,0,0,0-.49-.24,12.89,12.89,0,0,0-9.3-1.46,1.6,1.6,0,0,1,.34-.63,5.37,5.37,0,0,1,1.27-1.31.78.78,0,0,0-.34-.19,18,18,0,0,0-11.64-1,16.42,16.42,0,0,0-2,.63,1.7,1.7,0,0,1,.24-.63,2.31,2.31,0,0,1,.54-.63,3.11,3.11,0,0,1,.73-.63,1.42,1.42,0,0,0-.44-.1,9.86,9.86,0,0,0-2.09-.24,15.85,15.85,0,0,0-8,2A19.29,19.29,0,0,1,241.52,24l0,0a14.18,14.18,0,0,1-7.55.24,2.29,2.29,0,0,1-.78-.19,7.58,7.58,0,0,1-.78-1c-.39-.54-.63-1-.88-1.27,0,0,0,0-.15.1a.46.46,0,0,0-.39.24,10.42,10.42,0,0,1,.73,1.12,5.56,5.56,0,0,0,.88,1.22,13.19,13.19,0,0,0,.68,3.41,18,18,0,0,0,1,2.53,17.31,17.31,0,0,0,1.31,1.7,27.56,27.56,0,0,0,2.92,2.92c5,4.38,11,6,18,4.87a5.55,5.55,0,0,1-1.61-.39,7.49,7.49,0,0,1-2.19-1,12.85,12.85,0,0,1,1.41.1A23.26,23.26,0,0,0,267.76,34l.49-.34a3.52,3.52,0,0,0-.58.24A3,3,0,0,1,267,34a5.35,5.35,0,0,1-2.14.1,6.59,6.59,0,0,0,1.66-.54c.24-.15.49-.29.78-.44A15.94,15.94,0,0,0,270.19,31.06Zm1.8-4.14c1.61,0,2.58.29,2.87.83a24.78,24.78,0,0,0-8.81.63,16,16,0,0,0-2.43.58c-11.93,2.87-21.66,1.95-29.26-2.68a.59.59,0,0,1-.19-.73c7.84,4.77,17.77,5.65,29.65,2.82.49-.15,1-.29,1.41-.39A37.91,37.91,0,0,1,272,26.92Z"/><path class="cls-1" d="M288,36c-.1.1-.15.19-.19.24s-.1.15-.15.19-.19.29-.29.39a17.38,17.38,0,0,1-6.28,4.72,26.51,26.51,0,0,1-2.48,1c-.68.49-.58,1.41.34,2.82a17.51,17.51,0,0,1,10.61,13.49,31.25,31.25,0,0,0-1.12-4.87,16.89,16.89,0,0,0-6.72-8.37,11.79,11.79,0,0,1-1.22-1.12c-.68-.73-.39-1.36.83-1.9a14.85,14.85,0,0,0,3.31-2A14.67,14.67,0,0,0,288,36Z"/><path class="cls-1" d="M286.89,36a3.09,3.09,0,0,0,.58-.34v-.1a.76.76,0,0,0,.29-.39,1.22,1.22,0,0,0-.39.24,45.59,45.59,0,0,1-6.18,2.29,1.62,1.62,0,0,0-.29.15c-.44.1-.88.24-1.31.34s-.63.19-.92.29a34,34,0,0,1-5.4.83c-.88,0-1.61,0-2.39,0a2.13,2.13,0,0,1-.24,0C268,38.9,266,38,264.74,36.56a3.55,3.55,0,0,0-.44.49v0a8.36,8.36,0,0,0,2.09,2,11.08,11.08,0,0,0,3.8,1.51h.39a19.34,19.34,0,0,0,2.39,0,20,20,0,0,0,2.39-.29,34.42,34.42,0,0,0,4-1,3.1,3.1,0,0,1,.88-.29A45.86,45.86,0,0,0,286.89,36Z"/><path class="cls-1" d="M234.9,4.53A6.76,6.76,0,0,1,238,10a8.53,8.53,0,0,1-.44,1.95,7.42,7.42,0,0,0-.29,1.8,8.58,8.58,0,0,0,1.61,3.75c-.34-1.31-.39-2-.1-2.19,0-.34.19-.88.39-1.7a13.58,13.58,0,0,0,.39-2.68,10.52,10.52,0,0,0-3.26-7.79A10.07,10.07,0,0,0,228.91,0,12.67,12.67,0,0,0,221,2.58c-1.31,1-2.29,1.75-3,2.29A21.79,21.79,0,0,1,214.4,7c0,.1.1.15.1.24a16.72,16.72,0,0,0,3.36-1.46,29,29,0,0,0,2.73-1.61A15.06,15.06,0,0,1,228,2.34,11,11,0,0,1,234.9,4.53Z"/><path class="cls-1" d="M260.56,45.57c-.68,0-1.36,0-2,0-.49,0-1,0-1.51,0a21.44,21.44,0,0,0-3.6.73.83.83,0,0,1-.24.1,1.26,1.26,0,0,0-.49.54v.44a1.73,1.73,0,0,1,0,.34,13.54,13.54,0,0,1,2.34-.34,15.82,15.82,0,0,1,1.61-.1c1.36,0,2.63,0,3.89.1a63.19,63.19,0,0,1,12.51,1.7,12.47,12.47,0,0,1,1.66.49,34.82,34.82,0,0,1,7,3,.79.79,0,0,1,.34.19c1,.58,2,1.17,3,1.85a24.21,24.21,0,0,1,2.68,2.29l.34.34a9.07,9.07,0,0,0,1.12,1.27,26.29,26.29,0,0,0-4-4.53,36.63,36.63,0,0,0-3.7-2.77,4.44,4.44,0,0,0-.63-.39,38.75,38.75,0,0,0-5.31-2.68A45.77,45.77,0,0,0,260.56,45.57Z"/><path class="cls-1" d="M251.69,50.39a3.64,3.64,0,0,1,1,2.09,2.7,2.7,0,0,1-.39,1.22c-.29.44-1,.73-2.29.78a7.77,7.77,0,0,1-2.92-.15,5.91,5.91,0,0,1-1.75-.88,2.31,2.31,0,0,0-1.07-.49,3.86,3.86,0,0,0-1.8.54,5.53,5.53,0,0,1-2.39.54,8.7,8.7,0,0,1-2.68-.39c-1.07-.34-1.61-.83-1.61-1.36,0,0,0-.29.1-.54a3.19,3.19,0,0,0,.15-.63,2.06,2.06,0,0,0-1.9-2.19c-1.31-.24-1.95-.78-1.95-1.56a.68.68,0,0,1,.44-.73,7.69,7.69,0,0,0-1.51,0c-.93,0-1.41.34-1.41,1,0,1,.73,1.61,2.24,1.95a2.39,2.39,0,0,1,2.24,2.53,2.81,2.81,0,0,1-.1.68,1.52,1.52,0,0,0-.15.68c0,.58.63,1.12,1.9,1.56a9.69,9.69,0,0,0,3.07.54,6.19,6.19,0,0,0,2.82-.68,5.26,5.26,0,0,1,2.19-.68,3.14,3.14,0,0,1,1.22.63,6.68,6.68,0,0,0,1.7,1,11.75,11.75,0,0,0,3.36.19c1.66-.1,2.63-.44,3-.92a2.47,2.47,0,0,0,.49-1.41,5.49,5.49,0,0,0-1.7-3.16s-.1-.1-.15-.1Z"/><path class="cls-1" d="M229.35,43.86l1.31-.34c-6.91-3.8-9.88-10.76-9.06-20.84a6.54,6.54,0,0,0,.73-2.73,4,4,0,0,0-1.27-2.58,4.13,4.13,0,0,1-1.27-2.53,6.37,6.37,0,0,1,.58-2.73,28.36,28.36,0,0,0,1.36-2.58,35.2,35.2,0,0,1-3.51-.83l-3.31-1a.18.18,0,0,0-.15,0,4.34,4.34,0,0,0,1.61,1.46,6.3,6.3,0,0,0,2.34,1.07v0a.1.1,0,0,0,.1.1,6.15,6.15,0,0,0-.88,1.8,9.25,9.25,0,0,0-.34,2.14,5.65,5.65,0,0,0,1.12,3.46A4.4,4.4,0,0,1,219.81,20a15,15,0,0,1-.29,2.19,15.45,15.45,0,0,0-.29,2.34,4.69,4.69,0,0,0,.1.58C218.78,34.42,222.14,40.65,229.35,43.86Z"/><path class="cls-1" d="M225,6.33a2.16,2.16,0,0,0-.24.63,1.42,1.42,0,0,0,.15.68s0,.15.1.15a1.11,1.11,0,0,0,.63.15,1.25,1.25,0,0,0,.92-.34,2.16,2.16,0,0,0,.1-.63c0-.49-.49-.78-1.41-1C225.16,6.09,225.06,6.18,225,6.33Z"/></g></g></g></g></svg>
