<svg xmlns="http://www.w3.org/2000/svg" viewBox="0 0 815.66 283.11"><defs><style>.cls-1{fill:#fff;}.cls-2{fill:#44b99f;}.cls-3{fill:#ffeb57;}.cls-4{fill:#ba3c49;}</style></defs><title>Asset 7</title><g id="Layer_2" data-name="Layer 2"><g id="Main"><g id="Main_on_dark" data-name="Main on dark"><path class="cls-1" d="M397.87,6.84V81H387.27V30.16q0-1.24.08-2.7t.23-3l-23.84,44a4.53,4.53,0,0,1-4.27,2.73h-1.7a4.46,4.46,0,0,1-4.27-2.73L329.3,24.4q.16,1.49.23,3t.08,2.78V81H319V6.84h9a8.43,8.43,0,0,1,2.47.28,3.11,3.11,0,0,1,1.6,1.72l23.79,43.09q.77,1.49,1.47,3.06t1.26,3.22q.62-1.65,1.31-3.27t1.47-3.11l23.42-43a3.11,3.11,0,0,1,1.6-1.72,8.42,8.42,0,0,1,2.47-.28Z"/><path class="cls-1" d="M445.9,38.76a5.72,5.72,0,0,1-1,1,2.14,2.14,0,0,1-1.34.36,3.37,3.37,0,0,1-1.83-.62q-1-.62-2.27-1.36a17.89,17.89,0,0,0-3.17-1.36,14.83,14.83,0,0,0-4.63-.62,14.52,14.52,0,0,0-6.31,1.29,12.25,12.25,0,0,0-4.53,3.68A16.31,16.31,0,0,0,418.13,47a30.28,30.28,0,0,0-.9,7.7,28.91,28.91,0,0,0,1,7.88A17,17,0,0,0,421,68.36a12.09,12.09,0,0,0,4.43,3.6,13.45,13.45,0,0,0,5.84,1.24,14.7,14.7,0,0,0,5.2-.77,16,16,0,0,0,3.35-1.7q1.34-.93,2.29-1.7a3.17,3.17,0,0,1,2-.77,2.37,2.37,0,0,1,2.06,1l3.14,4.07a20.59,20.59,0,0,1-4.22,3.91,23.94,23.94,0,0,1-4.89,2.6,25.7,25.7,0,0,1-5.35,1.44,36.07,36.07,0,0,1-5.61.44,22.88,22.88,0,0,1-9.14-1.83,21.34,21.34,0,0,1-7.41-5.3,25.28,25.28,0,0,1-5-8.49,33.35,33.35,0,0,1-1.83-11.46,34.07,34.07,0,0,1,1.65-10.79,24.5,24.5,0,0,1,4.81-8.57,21.89,21.89,0,0,1,7.85-5.64,26.94,26.94,0,0,1,10.81-2,25.51,25.51,0,0,1,10.07,1.85,24.4,24.4,0,0,1,7.75,5.25Z"/><path class="cls-1" d="M520,44.48V73.82a42.86,42.86,0,0,1-25.74,8A45,45,0,0,1,478,79a36.17,36.17,0,0,1-12.43-7.83,34.27,34.27,0,0,1-7.93-12,40.81,40.81,0,0,1-2.78-15.29,42.56,42.56,0,0,1,2.68-15.37,34.08,34.08,0,0,1,7.67-12,34.39,34.39,0,0,1,12-7.77A43.3,43.3,0,0,1,493.11,6a46.69,46.69,0,0,1,8.31.7,41.2,41.2,0,0,1,7.13,1.93,33.37,33.37,0,0,1,6.08,3,34,34,0,0,1,5.1,3.91l-3.45,5.51a3.43,3.43,0,0,1-2.11,1.6,3.61,3.61,0,0,1-2.78-.62l-3.17-1.85a27.77,27.77,0,0,0-3.84-1.83,28.13,28.13,0,0,0-5-1.39,36.14,36.14,0,0,0-6.69-.54,27.67,27.67,0,0,0-10.58,1.93,22.63,22.63,0,0,0-8.06,5.51,24.43,24.43,0,0,0-5.15,8.67,34,34,0,0,0-1.8,11.38A34.48,34.48,0,0,0,469,55.78a24.78,24.78,0,0,0,5.41,8.85,23,23,0,0,0,8.47,5.53,33.77,33.77,0,0,0,19.25.93,37.1,37.1,0,0,0,7-2.73V53.64H498.83A2.56,2.56,0,0,1,497,53a2.21,2.21,0,0,1-.67-1.67V44.48Z"/><path class="cls-1" d="M544.35,12.61a6.92,6.92,0,0,1-.59,2.83,7.44,7.44,0,0,1-1.62,2.34,7.91,7.91,0,0,1-2.39,1.6,7.22,7.22,0,0,1-2.91.59,6.74,6.74,0,0,1-2.81-.59,7.41,7.41,0,0,1-2.29-1.6,7.88,7.88,0,0,1-1.57-2.34,6.91,6.91,0,0,1-.59-2.83,7,7,0,0,1,.59-2.88,7.9,7.9,0,0,1,1.57-2.34A7.43,7.43,0,0,1,534,5.79a6.75,6.75,0,0,1,2.81-.59,7.24,7.24,0,0,1,2.91.59,7.93,7.93,0,0,1,2.39,1.6,7.46,7.46,0,0,1,1.62,2.34A7,7,0,0,1,544.35,12.61Zm-1.85,15.86V81H531.43V28.46Z"/><path class="cls-1" d="M565.9,4.78V81H554.83V4.78Z"/><path class="cls-1" d="M589.19,4.78V81H578.12V4.78Z"/><path class="cls-1" d="M357.77,114.35a4.54,4.54,0,0,1-1.18,1.36,2.61,2.61,0,0,1-1.54.44,4,4,0,0,1-2.19-.82q-1.21-.82-3-1.83a26.18,26.18,0,0,0-4.2-1.85,19.74,19.74,0,0,0-11.2-.08,11.28,11.28,0,0,0-3.94,2.16,8.92,8.92,0,0,0-2.39,3.27,10.36,10.36,0,0,0-.8,4.09,7.33,7.33,0,0,0,1.49,4.71,12.75,12.75,0,0,0,3.94,3.22,31.77,31.77,0,0,0,5.59,2.34q3.14,1,6.41,2.14t6.41,2.57a21.86,21.86,0,0,1,5.58,3.66,16.79,16.79,0,0,1,3.94,5.41,18.27,18.27,0,0,1,1.49,7.77,25.11,25.11,0,0,1-1.7,9.27,21.82,21.82,0,0,1-4.92,7.54,22.89,22.89,0,0,1-7.93,5.07,29.13,29.13,0,0,1-10.73,1.85,34.22,34.22,0,0,1-6.92-.69,35.85,35.85,0,0,1-6.44-2,32.17,32.17,0,0,1-5.74-3.06,28.78,28.78,0,0,1-4.79-4l3.5-5.77a3.4,3.4,0,0,1,1.18-1.13,3.16,3.16,0,0,1,1.6-.41,4.48,4.48,0,0,1,2.63,1.11q1.44,1.11,3.47,2.42a26.76,26.76,0,0,0,4.92,2.42,19.25,19.25,0,0,0,6.9,1.11q6.54,0,10.12-3.19a11.19,11.19,0,0,0,3.58-8.8,8.29,8.29,0,0,0-1.49-5.12,12.15,12.15,0,0,0-3.94-3.32A28.29,28.29,0,0,0,339.9,144q-3.14-.93-6.38-2a62.62,62.62,0,0,1-6.38-2.47,20.31,20.31,0,0,1-5.59-3.71,17.17,17.17,0,0,1-3.94-5.66,20.82,20.82,0,0,1-1.49-8.42,20,20,0,0,1,6.15-14.44,22.43,22.43,0,0,1,7.44-4.66,27.28,27.28,0,0,1,10.09-1.75,33,33,0,0,1,11.71,2,26.68,26.68,0,0,1,9.19,5.71Z"/><path class="cls-1" d="M415.9,123.31v52.51h-6.69a2.69,2.69,0,0,1-2.83-2.11l-.82-4.89a31.93,31.93,0,0,1-3.47,3.19,22.59,22.59,0,0,1-3.89,2.47,20.63,20.63,0,0,1-4.4,1.6,21.33,21.33,0,0,1-5,.57,18.87,18.87,0,0,1-7.62-1.44,15.12,15.12,0,0,1-5.53-4.07,17.49,17.49,0,0,1-3.37-6.31,27.45,27.45,0,0,1-1.13-8.11V123.31h11.07v33.41q0,5.3,2.45,8.24t7.44,2.93a14.38,14.38,0,0,0,6.82-1.67,23.05,23.05,0,0,0,5.95-4.61v-38.3Z"/><path class="cls-1" d="M459.33,132.83a2.75,2.75,0,0,1-.93,1,2.47,2.47,0,0,1-1.29.31,4.14,4.14,0,0,1-1.9-.54q-1-.54-2.42-1.21a21,21,0,0,0-3.27-1.21,16,16,0,0,0-4.4-.54,13.3,13.3,0,0,0-3.73.49,8.41,8.41,0,0,0-2.83,1.39,6.3,6.3,0,0,0-1.78,2.11,5.63,5.63,0,0,0-.62,2.6,4.4,4.4,0,0,0,1.13,3.09,9.79,9.79,0,0,0,3,2.14,28.83,28.83,0,0,0,4.22,1.62q2.37.72,4.84,1.54a48.91,48.91,0,0,1,4.84,1.9,18.14,18.14,0,0,1,4.22,2.65,12.07,12.07,0,0,1,3,3.81,11.93,11.93,0,0,1,1.13,5.43,17.27,17.27,0,0,1-1.34,6.85,15.38,15.38,0,0,1-3.91,5.46,18,18,0,0,1-6.41,3.6,27.56,27.56,0,0,1-8.78,1.29,27.94,27.94,0,0,1-5.28-.49,30.36,30.36,0,0,1-4.84-1.34,25.71,25.71,0,0,1-4.27-2,22.46,22.46,0,0,1-3.53-2.57l2.57-4.22a3.57,3.57,0,0,1,1.16-1.21,3.18,3.18,0,0,1,1.72-.44,3.85,3.85,0,0,1,2.14.69q1.05.7,2.47,1.52a19.57,19.57,0,0,0,3.42,1.52,15.43,15.43,0,0,0,5,.69,13.73,13.73,0,0,0,4.27-.59,8.56,8.56,0,0,0,3-1.62,6.52,6.52,0,0,0,1.75-2.34,7,7,0,0,0,.57-2.81,4.81,4.81,0,0,0-1.13-3.29,9.61,9.61,0,0,0-3-2.21,27.85,27.85,0,0,0-4.27-1.65q-2.39-.72-4.87-1.54a50.76,50.76,0,0,1-4.87-1.9A16.72,16.72,0,0,1,429.8,148a12.53,12.53,0,0,1-3-4.07,13.58,13.58,0,0,1-1.13-5.84,14.42,14.42,0,0,1,5-11,18,18,0,0,1,6-3.42,24.81,24.81,0,0,1,8.26-1.26,26.13,26.13,0,0,1,9.63,1.7,20.93,20.93,0,0,1,7.26,4.63Z"/><path class="cls-1" d="M489.24,176.64q-6.54,0-10.07-3.68t-3.53-10.37V132h-5.77a2.32,2.32,0,0,1-1.6-.59,2.24,2.24,0,0,1-.67-1.78v-4.48l8.5-1.24,2.42-15.19a2.93,2.93,0,0,1,.88-1.42,2.41,2.41,0,0,1,1.65-.54h5.66V124h14.57v8H486.72v29.81a6.12,6.12,0,0,0,1.39,4.32,4.82,4.82,0,0,0,3.71,1.49,6.52,6.52,0,0,0,2.21-.33,10,10,0,0,0,1.6-.72q.67-.39,1.16-.72a1.57,1.57,0,0,1,2.45.7l3.29,5.41a18,18,0,0,1-6.08,3.48A21.92,21.92,0,0,1,489.24,176.64Z"/><path class="cls-1" d="M508.69,130.62a30.07,30.07,0,0,1,21.21-8.29,20.82,20.82,0,0,1,8.06,1.47,16.13,16.13,0,0,1,5.92,4.14,18.34,18.34,0,0,1,3.66,6.36,25.05,25.05,0,0,1,1.26,8.16v33.36h-4.94a4.8,4.8,0,0,1-2.42-.49,3.75,3.75,0,0,1-1.39-2L539,169.07a48.64,48.64,0,0,1-4,3.22,25,25,0,0,1-4,2.39,19.9,19.9,0,0,1-4.48,1.47,26.4,26.4,0,0,1-5.28.49,19.54,19.54,0,0,1-5.95-.87,13.05,13.05,0,0,1-4.76-2.65,12.55,12.55,0,0,1-3.17-4.4,15.2,15.2,0,0,1-1.16-6.18,11.93,11.93,0,0,1,1.62-5.92,14.81,14.81,0,0,1,5.35-5.17,34.74,34.74,0,0,1,9.83-3.78A71.48,71.48,0,0,1,538,146v-3.5q0-5.66-2.42-8.44t-7.1-2.78a15.58,15.58,0,0,0-5.35.8,24.2,24.2,0,0,0-3.76,1.72q-1.6.93-2.83,1.72a4.75,4.75,0,0,1-2.63.8,3.15,3.15,0,0,1-1.93-.59,4.88,4.88,0,0,1-1.31-1.47ZM538,152.86a70.07,70.07,0,0,0-10,1,28.38,28.38,0,0,0-6.59,1.9,8.69,8.69,0,0,0-3.63,2.75,6,6,0,0,0-1.11,3.5,7.67,7.67,0,0,0,.59,3.17A5.77,5.77,0,0,0,519,167.3a6.69,6.69,0,0,0,2.47,1.24,11.81,11.81,0,0,0,3.11.39A15.92,15.92,0,0,0,532,167.3a23.28,23.28,0,0,0,6-4.71Z"/><path class="cls-1" d="M573.41,107.45a6.92,6.92,0,0,1-.59,2.83,7.44,7.44,0,0,1-1.62,2.34,7.91,7.91,0,0,1-2.39,1.6,7.22,7.22,0,0,1-2.91.59,6.74,6.74,0,0,1-2.81-.59,7.41,7.41,0,0,1-2.29-1.6,7.88,7.88,0,0,1-1.57-2.34,6.91,6.91,0,0,1-.59-2.83,7,7,0,0,1,.59-2.88,7.9,7.9,0,0,1,1.57-2.34,7.44,7.44,0,0,1,2.29-1.6,6.75,6.75,0,0,1,2.81-.59,7.24,7.24,0,0,1,2.91.59,7.93,7.93,0,0,1,2.39,1.6,7.46,7.46,0,0,1,1.62,2.34A7,7,0,0,1,573.41,107.45Zm-1.85,15.86v52.51H560.49V123.31Z"/><path class="cls-1" d="M594.2,130.26a33.66,33.66,0,0,1,3.53-3.17,23.48,23.48,0,0,1,3.89-2.45A20.78,20.78,0,0,1,606,123a21.22,21.22,0,0,1,5-.57,18.69,18.69,0,0,1,7.59,1.44,15.18,15.18,0,0,1,5.51,4.07,17.54,17.54,0,0,1,3.37,6.31,27.49,27.49,0,0,1,1.13,8.11v33.41h-11V142.41q0-5.3-2.45-8.24t-7.44-2.93a14.31,14.31,0,0,0-6.87,1.7,23.58,23.58,0,0,0-5.95,4.63v38.25H583.85V123.31h6.69a2.72,2.72,0,0,1,2.88,2.11Z"/><path class="cls-1" d="M639,130.62a30.07,30.07,0,0,1,21.21-8.29,20.82,20.82,0,0,1,8.06,1.47,16.13,16.13,0,0,1,5.92,4.14,18.34,18.34,0,0,1,3.66,6.36,25.05,25.05,0,0,1,1.26,8.16v33.36h-4.94a4.8,4.8,0,0,1-2.42-.49,3.75,3.75,0,0,1-1.39-2l-1.08-4.27a48.64,48.64,0,0,1-4,3.22,25,25,0,0,1-4,2.39,19.9,19.9,0,0,1-4.48,1.47,26.4,26.4,0,0,1-5.28.49,19.54,19.54,0,0,1-5.95-.87,13.05,13.05,0,0,1-4.76-2.65,12.55,12.55,0,0,1-3.17-4.4,15.2,15.2,0,0,1-1.16-6.18,11.93,11.93,0,0,1,1.62-5.92,14.81,14.81,0,0,1,5.35-5.17,34.74,34.74,0,0,1,9.83-3.78,71.48,71.48,0,0,1,15.06-1.7v-3.5q0-5.66-2.42-8.44t-7.1-2.78a15.58,15.58,0,0,0-5.35.8,24.2,24.2,0,0,0-3.76,1.72q-1.6.93-2.83,1.72a4.75,4.75,0,0,1-2.63.8,3.15,3.15,0,0,1-1.93-.59,4.88,4.88,0,0,1-1.31-1.47Zm29.34,22.24a70.07,70.07,0,0,0-10,1,28.38,28.38,0,0,0-6.59,1.9,8.69,8.69,0,0,0-3.63,2.75A6,6,0,0,0,647,162a7.67,7.67,0,0,0,.59,3.17,5.77,5.77,0,0,0,1.65,2.16,6.69,6.69,0,0,0,2.47,1.24,11.81,11.81,0,0,0,3.11.39,15.92,15.92,0,0,0,7.44-1.62,23.28,23.28,0,0,0,6-4.71Z"/><path class="cls-1" d="M701.83,130.26a26.51,26.51,0,0,1,7.26-5.66,19.4,19.4,0,0,1,9.16-2.11,18.77,18.77,0,0,1,8.26,1.78,17.31,17.31,0,0,1,6.25,5.12,24.35,24.35,0,0,1,4,8.11,38.29,38.29,0,0,1,1.39,10.73,40.27,40.27,0,0,1-1.57,11.61,26.83,26.83,0,0,1-4.5,9,20.2,20.2,0,0,1-7.1,5.77,21,21,0,0,1-9.32,2,19.86,19.86,0,0,1-4.58-.49,16,16,0,0,1-3.81-1.42,16.74,16.74,0,0,1-3.22-2.21,24,24,0,0,1-2.81-2.93l-.46,4.07a2.8,2.8,0,0,1-.93,1.7,3,3,0,0,1-1.85.51h-7.21V99.62h11.07Zm0,32.38a13.3,13.3,0,0,0,5.07,4.2,14.74,14.74,0,0,0,6,1.21,12.14,12.14,0,0,0,10.19-4.74q3.65-4.74,3.66-14.67,0-9.06-3.17-13.23a10.67,10.67,0,0,0-9-4.17,13.38,13.38,0,0,0-7.08,1.83,21,21,0,0,0-5.64,5.23Z"/><path class="cls-1" d="M758.89,99.62v76.19H747.82V99.62Z"/><path class="cls-1" d="M779.32,150.44a26.37,26.37,0,0,0,1.39,7.75,16,16,0,0,0,3.17,5.43,12.29,12.29,0,0,0,4.74,3.22,17.06,17.06,0,0,0,6.15,1.06,18.74,18.74,0,0,0,5.61-.75,26.27,26.27,0,0,0,4.12-1.65q1.75-.9,3-1.65a4.46,4.46,0,0,1,2.26-.75,2.36,2.36,0,0,1,2.06,1l3.14,4.07a19.91,19.91,0,0,1-4.43,3.91,25.8,25.8,0,0,1-5.25,2.6,29.66,29.66,0,0,1-5.71,1.44,38.76,38.76,0,0,1-5.71.44,27.48,27.48,0,0,1-10.12-1.83,22.49,22.49,0,0,1-8.08-5.38,24.83,24.83,0,0,1-5.35-8.8,35,35,0,0,1-1.93-12.1,29.56,29.56,0,0,1,1.72-10.19A24.31,24.31,0,0,1,775,130a23.21,23.21,0,0,1,7.83-5.53,25.57,25.57,0,0,1,10.43-2,25,25,0,0,1,9,1.57,19.66,19.66,0,0,1,7.1,4.61A21.21,21.21,0,0,1,814,136.1a28.06,28.06,0,0,1,1.67,10,7.07,7.07,0,0,1-.57,3.45,2.27,2.27,0,0,1-2.06.88Zm26.41-6.8a16.26,16.26,0,0,0-.8-5.17,12.12,12.12,0,0,0-2.34-4.17,10.69,10.69,0,0,0-3.84-2.78,13,13,0,0,0-5.28-1q-6,0-9.47,3.45t-4.38,9.68Z"/><path class="cls-1" d="M365.28,260.93l-.05,9.73H319V196.52h46.23v9.73H331.1V228.6h27.29V238H331.1v22.91Z"/><path class="cls-1" d="M417.14,218.15,396,270.66H386l-21.11-52.51H374a3.44,3.44,0,0,1,2.14.64,3,3,0,0,1,1.11,1.52l11.63,30.58q.72,2.16,1.29,4.27t1,4.27q.41-2.16,1-4.25t1.31-4.3l11.84-30.58a3.14,3.14,0,0,1,1.13-1.54,3.25,3.25,0,0,1,2-.62Z"/><path class="cls-1" d="M429.38,245.28a26.37,26.37,0,0,0,1.39,7.75,16,16,0,0,0,3.17,5.43,12.29,12.29,0,0,0,4.74,3.22,17.06,17.06,0,0,0,6.15,1.06,18.74,18.74,0,0,0,5.61-.75,26.27,26.27,0,0,0,4.12-1.65q1.75-.9,3-1.65a4.46,4.46,0,0,1,2.26-.75,2.36,2.36,0,0,1,2.06,1L465,263a19.91,19.91,0,0,1-4.43,3.91,25.8,25.8,0,0,1-5.25,2.6,29.66,29.66,0,0,1-5.71,1.44,38.76,38.76,0,0,1-5.71.44,27.48,27.48,0,0,1-10.12-1.83,22.49,22.49,0,0,1-8.08-5.38,24.83,24.83,0,0,1-5.35-8.8,35,35,0,0,1-1.93-12.1,29.56,29.56,0,0,1,1.72-10.19,24.31,24.31,0,0,1,4.94-8.24,23.21,23.21,0,0,1,7.83-5.53,25.57,25.57,0,0,1,10.43-2,25,25,0,0,1,9,1.57,19.66,19.66,0,0,1,7.1,4.61,21.21,21.21,0,0,1,4.66,7.44,28.06,28.06,0,0,1,1.67,10,7.07,7.07,0,0,1-.57,3.45,2.27,2.27,0,0,1-2.06.88Zm26.41-6.8a16.26,16.26,0,0,0-.8-5.17,12.12,12.12,0,0,0-2.34-4.17,10.69,10.69,0,0,0-3.84-2.78,13,13,0,0,0-5.28-1q-6,0-9.47,3.45t-4.38,9.68Z"/><path class="cls-1" d="M485.21,225.1a33.66,33.66,0,0,1,3.53-3.17,23.48,23.48,0,0,1,3.89-2.45,20.78,20.78,0,0,1,4.38-1.6,21.22,21.22,0,0,1,5-.57,18.69,18.69,0,0,1,7.59,1.44,15.18,15.18,0,0,1,5.51,4.07,17.54,17.54,0,0,1,3.37,6.31,27.49,27.49,0,0,1,1.13,8.11v33.41h-11V237.25q0-5.3-2.45-8.24t-7.44-2.93a14.31,14.31,0,0,0-6.87,1.7,23.58,23.58,0,0,0-5.95,4.63v38.25H474.87V218.15h6.69a2.72,2.72,0,0,1,2.88,2.11Z"/><path class="cls-1" d="M546.88,271.48q-6.54,0-10.07-3.68t-3.53-10.37V226.85h-5.77a2.32,2.32,0,0,1-1.6-.59,2.24,2.24,0,0,1-.67-1.78V220l8.5-1.24,2.42-15.19a2.93,2.93,0,0,1,.88-1.42,2.41,2.41,0,0,1,1.65-.54h5.66v17.25h14.57v8H544.36v29.81a6.12,6.12,0,0,0,1.39,4.32,4.82,4.82,0,0,0,3.71,1.49,6.52,6.52,0,0,0,2.21-.33,10,10,0,0,0,1.6-.72q.67-.39,1.16-.72a1.57,1.57,0,0,1,2.45.7l3.29,5.41a18,18,0,0,1-6.08,3.48A21.92,21.92,0,0,1,546.88,271.48Z"/><path class="cls-1" d="M599.87,227.67a2.75,2.75,0,0,1-.93,1,2.47,2.47,0,0,1-1.29.31,4.14,4.14,0,0,1-1.9-.54q-1-.54-2.42-1.21a21,21,0,0,0-3.27-1.21,16,16,0,0,0-4.4-.54,13.3,13.3,0,0,0-3.73.49,8.41,8.41,0,0,0-2.83,1.39,6.3,6.3,0,0,0-1.78,2.11,5.63,5.63,0,0,0-.62,2.6,4.4,4.4,0,0,0,1.13,3.09,9.79,9.79,0,0,0,3,2.14,28.83,28.83,0,0,0,4.22,1.62q2.37.72,4.84,1.54a48.91,48.91,0,0,1,4.84,1.9,18.14,18.14,0,0,1,4.22,2.65,12.07,12.07,0,0,1,3,3.81,11.93,11.93,0,0,1,1.13,5.43,17.27,17.27,0,0,1-1.34,6.85,15.38,15.38,0,0,1-3.91,5.46,18,18,0,0,1-6.41,3.6,27.56,27.56,0,0,1-8.78,1.29,27.94,27.94,0,0,1-5.28-.49,30.36,30.36,0,0,1-4.84-1.34,25.71,25.71,0,0,1-4.27-2,22.46,22.46,0,0,1-3.53-2.57l2.57-4.22a3.57,3.57,0,0,1,1.16-1.21,3.18,3.18,0,0,1,1.72-.44,3.85,3.85,0,0,1,2.14.69q1.05.7,2.47,1.52a19.57,19.57,0,0,0,3.42,1.52,15.43,15.43,0,0,0,5,.69,13.73,13.73,0,0,0,4.27-.59,8.56,8.56,0,0,0,3-1.62A6.52,6.52,0,0,0,592.2,259a7,7,0,0,0,.57-2.81,4.81,4.81,0,0,0-1.13-3.29,9.61,9.61,0,0,0-3-2.21,27.85,27.85,0,0,0-4.27-1.65q-2.39-.72-4.87-1.54a50.76,50.76,0,0,1-4.87-1.9,16.72,16.72,0,0,1-4.27-2.75,12.53,12.53,0,0,1-3-4.07A13.58,13.58,0,0,1,566.2,233a14.42,14.42,0,0,1,5-11,18,18,0,0,1,6-3.42,24.81,24.81,0,0,1,8.26-1.26,26.13,26.13,0,0,1,9.63,1.7,20.93,20.93,0,0,1,7.26,4.63Z"/><g id="Good_Icons" data-name="Good Icons"><path class="cls-2" d="M142.36,38.53c-13.65,30.21-42.87,73.38,4.37,90.27a.27.27,0,0,0,.31-.11c7.56-12.49,7-34.3,5.25-48.84,0-.29.45-.36.54-.09a126.24,126.24,0,0,1,5.76,48.75.23.23,0,0,0,.34.2c13.87-7.17,25.31-19,26.41-34.39,1.82-25.47-21.68-44.83-42.53-55.94A.35.35,0,0,0,142.36,38.53Z"/><path class="cls-3" d="M132.08,201.26a3.65,3.65,0,0,0,3.65-3.65V174.92a19.88,19.88,0,0,0-19.55-20.11H102.35v46.44Zm-29.54,0V154.81H88.8a19.88,19.88,0,0,0-19.64,20.11V197.6a3.65,3.65,0,0,0,3.65,3.65Zm-.84-91.15a19.82,19.82,0,1,0,19.82,19.82A19.82,19.82,0,0,0,101.7,110.1Z"/><path class="cls-4" d="M178.63,150.2a28.23,28.23,0,0,1,16.29,5.27,18.56,18.56,0,0,1,6.21,7.3,15,15,0,0,1-.66,14.11,20.25,20.25,0,0,1-9,8.12c-9.75,4.52-19.48,4.42-29.06-.94a18.44,18.44,0,0,1-7.9-8.31,15,15,0,0,1,.67-14.4,21.35,21.35,0,0,1,9-8A30.93,30.93,0,0,1,178.63,150.2Zm43.07,3.38a22.76,22.76,0,0,0,10.08-7.42,15.16,15.16,0,0,0,.6-18,18.67,18.67,0,0,0-6.77-6.33c-9.59-5.32-19.31-5.47-29.06-.93a20.14,20.14,0,0,0-9,8,14.93,14.93,0,0,0-.61,14.41,18.29,18.29,0,0,0,6,7,29,29,0,0,0,17.23,5.33A29.81,29.81,0,0,0,221.71,153.57Zm-68.78,28.6a15.66,15.66,0,0,0,2.44,8.41,21.1,21.1,0,0,0,9.14,7.88,30.74,30.74,0,0,0,20.5,2.11,25.18,25.18,0,0,0,13-7.18c3.92-4.06,5.15-9.5,4.46-15.82-.4,1.14-.77,2.49-1.33,3.68a18.54,18.54,0,0,1-8,8.53c-9.53,5.33-19.22,5.56-28.9,1-5-2.33-9.4-5.93-11.35-13.44C152.93,179,152.91,180.57,152.93,182.17Zm55.87-12.09a77.3,77.3,0,0,0,8.74-.83,23.16,23.16,0,0,0,12.95-7.15c4.52-4.93,4.92-9,4.49-15.89-.38,1.12-.72,2.4-1.22,3.52a19.23,19.23,0,0,1-8.34,8.92,29.81,29.81,0,0,1-17.92,3.86l-1.8-.15,2.38,7.66A3.47,3.47,0,0,0,208.8,170.08Zm-.19,13.23A29.38,29.38,0,0,0,226,179.06a20.36,20.36,0,0,0,7.09-7.22c2.18-3.73,2.09-8.1,1.91-12.53a4.88,4.88,0,0,0-.27.85c-.1.36-.19.72-.3,1.06a18,18,0,0,1-7.06,9.39c-5.58,4-11.59,5.3-17.8,5.28H208v7.29A4.42,4.42,0,0,0,208.6,183.32Zm0,12.4a29.38,29.38,0,0,0,17.41-4.26,20.36,20.36,0,0,0,7.09-7.22c2.18-3.73,2.09-8.1,1.91-12.53a4.88,4.88,0,0,0-.27.85c-.1.36-.19.72-.3,1.06a18,18,0,0,1-7.06,9.39c-5.58,4-11.59,5.3-17.8,5.28h-1.56v7.29A4.42,4.42,0,0,0,208.65,195.72Z"/></g><g id="Good_Arrows_all_Path_" data-name="Good Arrows (all Path)"><path class="cls-2" d="M260.23,71c-.56-3.56-1.73-11.51-3-19.94-1.85-12.59-3.76-25.6-4.08-26.84-.17-.66-.57-1.82-1.38-2.17a1.58,1.58,0,0,0-.63-.12,4.31,4.31,0,0,0-2,.62c-.7.39-10.31,7.81-11.41,8.65l-1.62,1.29a4.71,4.71,0,0,0-1.08-1.43c-22-19.64-51.14-30.69-82-31.11h-1.84A139.09,139.09,0,0,0,68.11,27.74a4.7,4.7,0,0,0-.87,6.7l6.18,7.74a4.66,4.66,0,0,0,3.66,1.76A4.71,4.71,0,0,0,79.91,43a119.75,119.75,0,0,1,71.34-23.71h1.59c25.67.35,49.85,9.31,68.27,25.23-3.83,3-12.11,9.45-12.74,10.17a2.87,2.87,0,0,0-.69,1.28c-.1.68.51,1.3,1,1.7.93.7,42.39,16.28,46.09,17.63a9.54,9.54,0,0,0,3.12.66,2.72,2.72,0,0,0,1.38-.3,2.67,2.67,0,0,0,1-1.92A9,9,0,0,0,260.23,71Zm-1.59,4.31-.09,0Zm-1.18.05-.23,0Zm-3.21-41-.46-3Zm-1.58-10a3.6,3.6,0,0,0-.76-1.58A3.59,3.59,0,0,1,252.67,24.39Zm-1.48-1.89a2.21,2.21,0,0,0-.45.05,2.24,2.24,0,0,1,.45-.06Zm-.59.09-.4.13Zm-.56.19a5.57,5.57,0,0,0-.57.28A5.56,5.56,0,0,1,250,22.78Zm-5.47,3.94,1-.77-1,.77-1,.79Zm-2.55,2,1-.77-1,.77-1,.73Zm-3.89,3-1.74,1.39h0ZM221.94,44.54h0ZM192,7q-2.64-.87-5.33-1.63Q189.38,6.11,192,7ZM181.28,4q-2.73-.64-5.5-1.16Q178.55,3.32,181.28,4ZM153.08.54A132.83,132.83,0,0,1,170.2,1.87,132.83,132.83,0,0,0,153.08.54h0Zm-45,7-1.33.45Zm41.31-7-1.45,0Zm-2.82.07-1.44.06Zm-2.81.13L142.3.82Zm-2.81.18L139.51,1Zm-2.8.24-1.41.14Zm-2.79.3-1.41.17Zm-2.78.35-1.4.2Zm-2.77.41-1.39.23ZM127,2.69l-1.39.26Zm-2.75.52-1.38.28Zm-2.74.58-1.37.31Zm-2.73.63-1.36.34Zm-2.71.69-1.36.37Zm-2.7.74-1.35.4Zm-2.68.8-1.34.42ZM105.41,8.4l-1.32.48Zm-2.63,1-1.32.51Zm-2.61,1-1.31.53Zm-2.59,1.06-1.3.56ZM95,12.54l-1.29.59Zm-2.55,1.17-1.28.61ZM90,14.93l-1.28.64Zm-2.5,1.27-1.28.68ZM85,17.52l-1.27.71Zm-2.45,1.37-1.26.74Zm-2.42,1.42-1.28.78Zm-2.39,1.47-1.31.84ZM75.35,23.3,74,24.21ZM73,24.87l-1.44,1ZM70.7,26.49q-1,.75-2.08,1.52Q69.65,27.24,70.7,26.49Zm6.17,16.89h.21Zm-2.4-.9.24.16Zm.74.47.3.13Zm.81.3.33.07ZM78.94,43a4.24,4.24,0,0,0,.66-.4A4.25,4.25,0,0,1,78.94,43Zm-1.44.41.47-.07Zm.73-.14a4.2,4.2,0,0,0,.48-.17A4.2,4.2,0,0,1,78.23,43.23Zm71.29-24.44c-.78,0-1.56,0-2.33,0C148,18.81,148.74,18.8,149.52,18.79Zm-4.87.17c-.77,0-1.54.08-2.31.14C143.11,19,143.88,19,144.65,19Zm-4.85.37c-.76.07-1.53.14-2.29.23C138.27,19.47,139,19.4,139.8,19.33ZM135,19.9c-.75.1-1.51.2-2.26.32C133.46,20.1,134.22,20,135,19.9Zm-4.79.76c-.75.13-1.49.26-2.23.41C128.69,20.92,129.44,20.79,130.18,20.66Zm-4.76,1c-.73.16-1.47.32-2.2.5C124,21.93,124.69,21.78,125.43,21.61Zm-4.71,1.15c-.72.19-1.45.38-2.17.58C119.27,23.14,120,23,120.72,22.76Zm-4.66,1.33c-.71.22-1.43.43-2.13.66C114.63,24.53,115.35,24.31,116.06,24.1Zm-4.61,1.52c-.7.25-1.4.48-2.09.74C110.05,26.1,110.75,25.86,111.45,25.62Zm-4.55,1.71c-.68.27-1.37.53-2,.82C105.54,27.86,106.22,27.6,106.9,27.33Zm-4.49,1.9c-.66.29-1.33.58-2,.89C101.09,29.8,101.76,29.52,102.42,29.22ZM98,31.31c-.63.31-1.27.62-1.9.94C96.72,31.93,97.36,31.62,98,31.31Zm-4.37,2.28c-.6.33-1.21.64-1.8,1C92.42,34.23,93,33.92,93.63,33.59Zm-4.32,2.48c-.55.33-1.11.65-1.66,1C88.19,36.72,88.75,36.4,89.31,36.07Zm-4.39,2.77c-.45.3-.91.58-1.35.88C84,39.42,84.47,39.14,84.92,38.84Zm130.21.22q-3.76-2.76-7.77-5.16,4,2.4,7.77,5.16c2.2,1.61,4.33,3.34,6.4,5.13h0C219.46,42.4,217.33,40.67,215.13,39.06ZM218.84,47l2.67-2.09h0L218.84,47l-1.91,1.5Zm-7,5.49,1.17-.93,1.26-1-1.26,1-1.17.93-1,.84Zm-3.33,2.87a2.37,2.37,0,0,0-.29.52A2.37,2.37,0,0,1,208.55,55.31Zm6.51,4.37L212,58.47c-1.22-.48-2.11-.84-2.58-1l-.36-.17-.24-.19.24.19.36.17c.47.2,1.36.57,2.58,1l3.08,1.21,2.25.87Zm8.35,3.21-5.3-2,5.3,2,1.91.73ZM228.87,65l-1.61-.61ZM234.28,67l2,.76,1.7.64-1.7-.64Zm-4-1.53,1.74.66ZM244.76,71l-3.62-1.37-1.91-.72,1.91.72L244.76,71l1.69.63,1.3.49-1.3-.49Zm5.18,1.95-1.15-.43Zm.5.19,1,.39Zm6.38,2.2-.26,0Zm-.76-.17-.25-.07Zm1.73.28h0ZM259,75.2h0a1,1,0,0,0,.3-.3A1,1,0,0,1,259,75.2Z"/><path class="cls-4" d="M283.88,122.35a4.7,4.7,0,0,0-4.66-4.2h0a4.77,4.77,0,0,0-.67,0l-9.8,1.39a4.69,4.69,0,0,0-4,5.18,120.09,120.09,0,0,1-16.61,74.85c-13.23,21.78-33,38-55.9,45.83-.43-4.52-1.52-15.82-1.8-16.77a2.87,2.87,0,0,0-.71-1.27,1.24,1.24,0,0,0-.84-.28,3.47,3.47,0,0,0-1.15.24c-1.08.41-36.48,27-39.61,29.43-1.7,1.3-2.69,2.62-2.72,3.61a2.67,2.67,0,0,0,1.09,1.86,9,9,0,0,0,2.31,1.4c3.3,1.43,10.65,4.72,18.42,8.19,11.61,5.19,23.62,10.56,24.83,11a5,5,0,0,0,1.51.27,1.86,1.86,0,0,0,1.06-.27,3.2,3.2,0,0,0,1-2.47c0-.8-1.06-12.89-1.18-14.27l-.15-1.42a4.6,4.6,0,0,0,.46,0,4.72,4.72,0,0,0,1.44-.23c28.11-9,52.41-28.48,68.44-54.85A139.45,139.45,0,0,0,283.88,122.35ZM282.2,120a4.21,4.21,0,0,0-.33-.31A4.18,4.18,0,0,1,282.2,120Zm-.6-.51a4.14,4.14,0,0,0-.38-.24A4.14,4.14,0,0,1,281.6,119.45Zm-.68-.39-.42-.16Zm-.75-.26-.45-.08Zm-.94-.12h.15a4.15,4.15,0,0,0-.74,0A4.21,4.21,0,0,1,279.22,118.68Zm-13.44,25.68a120.29,120.29,0,0,0-.5-19.64,4.25,4.25,0,0,1,0-.83,4.26,4.26,0,0,0,0,.83,120.54,120.54,0,0,1-2.17,39A120.68,120.68,0,0,0,265.78,144.36Zm-53.87,92.5q4-2.42,7.79-5.2a108.5,108.5,0,0,0,20.5-19.75q3-3.78,5.74-7.86-2.72,4.08-5.74,7.86a108.5,108.5,0,0,1-20.5,19.75q-3.78,2.78-7.79,5.2t-8.2,4.46Q207.91,239.28,211.91,236.86Zm-22.82-9.17a.61.61,0,0,1,.3.12A.62.62,0,0,0,189.09,227.69ZM193.68,264Zm-1.95-18.4-.16-1.73.16,1.73Zm-.46-4.74-.15-1.56Zm-.89-8.72c0-.44-.1-.86-.14-1.23C190.29,231.32,190.33,231.73,190.38,232.17Zm-.44-3.33v0c0-.12-.07-.23-.12-.33C189.87,228.61,189.91,228.72,189.94,228.84Zm.12.71-.06-.36C190,229.29,190,229.41,190.06,229.55ZM189,227.68a1.56,1.56,0,0,0-.32,0l.22,0Zm-1.06.2.26-.09-.26.09-.18.1Zm.71-.19-.36.08Zm-3.31,2c.91-.66,1.62-1.16,2.07-1.47-.45.31-1.16.81-2.07,1.47l-2.08,1.52-4.33,3.19,4.33-3.19Zm-36.87,27.54C151.37,255,166,244,176.66,236.09,166,244,151.37,255,148.45,257.24c-.24.19-.47.37-.67.55C148,257.61,148.21,257.42,148.45,257.24ZM146,260.18a1.25,1.25,0,0,0,0,.26h0A1.25,1.25,0,0,1,146,260.18Zm46.95,22.34.2,0Zm.61.06a2.07,2.07,0,0,0,.31,0,1.93,1.93,0,0,1-.27,0Zm.81-.18a1,1,0,0,1-.35.14,1,1,0,0,0,.35-.14,1,1,0,0,0,.28-.3A1,1,0,0,1,194.34,282.4Zm.74-2.17h0Zm-.17-2.44-.09-1.09Zm-.14-1.68-.1-1.23Zm-.16-1.87c-.15-1.73-.31-3.54-.44-5C194.31,270.7,194.47,272.51,194.62,274.24Zm-.72-8.09.19,2.15-.19-2.15-.17-1.55h0Zm.58-2a4.15,4.15,0,0,0,.54,0l-.29,0Zm31.19-14.45A119.61,119.61,0,0,1,196,264a4.2,4.2,0,0,1-.77.16A4.2,4.2,0,0,0,196,264a119.61,119.61,0,0,0,29.65-14.27q2.3-1.52,4.53-3.15Q228,248.2,225.67,249.72Zm57.25-93.34q-.57,4.2-1.4,8.36.83-4.16,1.4-8.36.76-5.6,1.07-11.26Q283.68,150.77,282.92,156.38Zm-.5-36.17a4.19,4.19,0,0,1,.28.39A4.2,4.2,0,0,0,282.42,120.21Zm.45.65a4.18,4.18,0,0,1,.22.49A4.2,4.2,0,0,0,282.86,120.86Zm1.28,12.91q-.16-5.68-.78-11.36a4.22,4.22,0,0,0-.17-.81,4.22,4.22,0,0,1,.17.81q.63,5.68.78,11.36.12,4.26,0,8.51Q284.26,138,284.14,133.77Z"/><path class="cls-3" d="M102,244.64a120.1,120.1,0,0,1-56.63-51.7c-12.46-22.63-16.59-48.27-11.7-72.28C37.41,122.17,49,126.85,50,127a3.91,3.91,0,0,0,.73.08,2,2,0,0,0,.72-.12c.64-.25.87-1.09,1-1.75.14-1.15-7.12-44.84-7.81-48.73-.37-2.11-1.08-3.59-1.94-4.08a1.62,1.62,0,0,0-.8-.19,3.92,3.92,0,0,0-1.35.3A9,9,0,0,0,38.17,74c-2.8,2.27-9.1,7.26-15.78,12.55-10,7.9-20.28,16.07-21.2,17A3.24,3.24,0,0,0,0,105.75a3.2,3.2,0,0,0,1.74,2c.69.41,11.92,5,13.2,5.54l1,.39a4.69,4.69,0,0,0-.91,1.9c-.42,1.95-.79,3.93-1.11,5.9a121.38,121.38,0,0,0,.41,41.06,130,130,0,0,0,14.17,39.69A139.45,139.45,0,0,0,94.6,262.43a4.7,4.7,0,0,0,6.25-2.55l3.67-9.19A4.69,4.69,0,0,0,102,244.64Zm2.22,3.47a4.2,4.2,0,0,0-2.43-3,120.38,120.38,0,0,1-22.34-12.85,120.38,120.38,0,0,0,22.34,12.85A4.2,4.2,0,0,1,104.25,248.11ZM73.5,227.63a120.5,120.5,0,0,1-11.35-10.68A120.48,120.48,0,0,0,73.5,227.63Zm-20.67-22c-1.57-2.16-3-4.39-4.46-6.66C49.79,201.24,51.26,203.47,52.83,205.63ZM36.92,121.4l1.11.45,1.27.51L38,121.85ZM43.38,124l-1.55-.62,1.55.62,4.13,1.62Zm-3.56-1.42.92.37Zm9.19,3.6a10.63,10.63,0,0,0,1.06.35h0A10.63,10.63,0,0,1,49,126.17Zm1.67.42h0Zm.23,0h0Zm.94-1.6c0-.11,0-.25,0-.43C51.82,124.73,51.83,124.87,51.84,125Zm-.32-2.41.13.94-.13-.94-.17-1.11ZM49.7,110.9c.57,3.58,1.08,6.8,1.46,9.28-.38-2.48-.89-5.7-1.46-9.28l-.82-5.06Zm-1.5-9.28.52,3.17-.52-3.17-.35-2.13Zm-.69-4.25-.68-4.16Zm-1.65-10-.27-1.65ZM44,76.61c.09.54.24,1.39.43,2.5l.3,1.75-.3-1.75c-.19-1.11-.33-2-.43-2.5a10.87,10.87,0,0,0-.56-2.09A10.88,10.88,0,0,1,44,76.61Zm1.24,7.32-.48-2.87ZM43,73.62a2.59,2.59,0,0,0-.45-.56A2.59,2.59,0,0,1,43,73.62Zm-.67-.71a1,1,0,0,0-.37-.1A1,1,0,0,1,42.37,72.9Zm-.46-.11a2,2,0,0,0-.4,0l.32,0ZM40.67,73l.33-.11-.33.11-.52.23Zm.8-.23-.38.09ZM22.63,87l4.54-3.59L22.63,87l-3.09,2.45ZM.53,105.69a1,1,0,0,0,0,.1,1,1,0,0,1,0-.1ZM2,107.3a4.21,4.21,0,0,1-1.18-1,4.22,4.22,0,0,0,1.18,1c.13.08.67.32,1.46.66C2.69,107.61,2.15,107.37,2,107.3Zm14.45,6.59-.1.11.09-.12Zm-.9,1.81a4.22,4.22,0,0,1,.25-.77,4.22,4.22,0,0,0-.25.77q-.63,2.93-1.11,5.87Q14.94,118.62,15.56,115.7Zm.63-1.46a4.2,4.2,0,0,0-.26.46A4.2,4.2,0,0,1,16.19,114.23ZM29,202a133,133,0,0,1-6.87-14.47,128.94,128.94,0,0,1-5-14.93,124.29,124.29,0,0,1-4-25.47Q12.81,142,13,136.86t.77-10.21q-.6,5.09-.77,10.21t.11,10.25a124.29,124.29,0,0,0,4,25.47,128.94,128.94,0,0,0,5,14.93A133,133,0,0,0,29,202a136.71,136.71,0,0,0,9.13,14.38A136.71,136.71,0,0,1,29,202Zm12.55,18.89q3.51,4.44,7.37,8.57Q45,225.32,41.52,220.87Zm38.11,33.3A138.35,138.35,0,0,0,94.81,262h0A138.35,138.35,0,0,1,79.63,254.17Zm16,8,.29,0Zm.84.09a4.17,4.17,0,0,0,.73-.07,4.16,4.16,0,0,1-.72.07Zm2.32-.69a4.15,4.15,0,0,0,.57-.46A4.15,4.15,0,0,1,98.8,261.61Zm-1.38.58a4.19,4.19,0,0,0,.52-.16A4.18,4.18,0,0,1,97.42,262.19Zm.73-.23a4.18,4.18,0,0,0,.62-.32A4.17,4.17,0,0,1,98.15,262Zm1.37-1a4.14,4.14,0,0,0,.35-.43A4.1,4.1,0,0,1,99.52,261Zm4.52-10.5-3.67,9.19a4.15,4.15,0,0,1-.36.69,4.15,4.15,0,0,0,.36-.69l3.67-9.19a4.17,4.17,0,0,0,.23-.8A4.17,4.17,0,0,1,104,250.49Z"/></g></g></g></g></svg>