<svg xmlns="http://www.w3.org/2000/svg" viewBox="0 0 330.3 107.15"><defs><style>.cls-1{fill:#fff;}.cls-2{fill:#ec983a;}.cls-3{fill:#c7414d;}.cls-4{fill:#876692;}.cls-5{fill:#73a7b1;}.cls-6{fill:#8c9c42;}.cls-7{fill:#7d3630;}.cls-8{fill:#4a7a43;}.cls-9{fill:#874c3c;}.cls-10{fill:#7e6f43;}.cls-11{fill:#7f384a;}.cls-12{fill:#5b4e39;}.cls-13{fill:#565878;}.cls-14{fill:#552f30;}.cls-15{fill:#59453d;}.cls-16{fill:#3f4637;}</style></defs><title>Asset 1</title><g id="Layer_2" data-name="Layer 2"><g id="English_only" data-name="English only"><path class="cls-1" d="M6.05,53.57A16.12,16.12,0,0,1,0,52.5V48.27a9.63,9.63,0,0,1,1.33-.1,8.53,8.53,0,0,1,1.3.1L3,50.48a11,11,0,0,0,3.22.42c2.7,0,3.9-1.2,3.9-3.35C10.12,43,.2,43.65.2,37.11c0-4,3.16-6.12,7.55-6.12a22.53,22.53,0,0,1,4.91.52V36a10.09,10.09,0,0,1-1.37.1A10.34,10.34,0,0,1,9.86,36l-.33-2.21a14.77,14.77,0,0,0-2.24-.16c-2.9,0-3.84,1.27-3.84,3.22,0,4,9.92,3.61,9.92,10.44C13.37,51.13,10.57,53.57,6.05,53.57Z"/><path class="cls-1" d="M36.08,33.7,34.19,34V45.41c0,5.79-2.83,8.17-7.94,8.17-5.43,0-7.87-2.37-7.87-8.17V34L16.5,33.7c0-.33-.07-.88-.07-1.2s0-.85.07-1.17h6.86c0,.33.06.85.06,1.17s0,.88-.06,1.2L21.57,34V45.41c0,3.81,1.17,5.37,4.78,5.37s4.81-1.53,4.81-5.37V34l-1.79-.33c0-.33-.07-.88-.07-1.2s0-.85.07-1.17h6.7c0,.33.07.85.07,1.17S36.11,33.37,36.08,33.7Z"/><path class="cls-1" d="M45.39,53.57a16.12,16.12,0,0,1-6.05-1.07V48.27a9.63,9.63,0,0,1,1.33-.1,8.53,8.53,0,0,1,1.3.1l.36,2.21a11,11,0,0,0,3.22.42c2.7,0,3.9-1.2,3.9-3.35,0-4.52-9.92-3.9-9.92-10.44,0-4,3.16-6.12,7.55-6.12a22.53,22.53,0,0,1,4.91.52V36a10.09,10.09,0,0,1-1.37.1,10.34,10.34,0,0,1-1.43-.1l-.33-2.21a14.77,14.77,0,0,0-2.24-.16c-2.9,0-3.84,1.27-3.84,3.22,0,4,9.92,3.61,9.92,10.44C52.71,51.13,49.91,53.57,45.39,53.57Z"/><path class="cls-1" d="M71.09,35.62a10.08,10.08,0,0,1-1.37.1,10.32,10.32,0,0,1-1.43-.1L68,34H64.65V50.55l2.28.33c0,.33.07.88.07,1.2s0,.85-.07,1.17H59.19c0-.33-.07-.85-.07-1.17s0-.88.07-1.2l2.28-.33V34H58.11l-.52,1.76A13.93,13.93,0,0,1,55,35.49c0-.88.16-2.63.36-4.16H71.09Z"/><path class="cls-1" d="M89.15,53.25H83c0-.33-.07-.85-.07-1.17s0-.88.07-1.2l1.56-.26-1.24-4.07H75.71l-1.24,4.07,1.56.26c0,.33.06.88.06,1.2s0,.85-.06,1.17H70.18c0-.33-.07-.85-.07-1.17s0-.88.07-1.2l1.27-.26c2-6.51,4.07-12.88,6.38-19.29H81.6c2.25,6.38,4.33,12.79,6.28,19.29l1.27.26c0,.33.06.88.06,1.2S89.18,52.92,89.15,53.25ZM80.07,35.94a11.5,11.5,0,0,1-.42-1.82h-.26A11.52,11.52,0,0,1,79,35.94L76.5,44h6.05Z"/><path class="cls-1" d="M98,53.25H90.29c0-.33-.07-.85-.07-1.17s0-.88.07-1.2l2.28-.33V34l-2.28-.33c0-.33-.07-.88-.07-1.2s0-.85.07-1.17H98c0,.33.07.85.07,1.17s0,.88-.07,1.2L95.76,34V50.55l2.28.33c0,.33.07.88.07,1.2S98.07,52.92,98,53.25Z"/><path class="cls-1" d="M121.53,33.7l-2,.33V53.15a20.84,20.84,0,0,1-2.89.26l-9-15.32a13.23,13.23,0,0,1-1.07-2.41h-.23a24.67,24.67,0,0,1,.16,2.5V50.55l2,.33c0,.33.06.88.06,1.2s0,.85-.06,1.17h-7.16c0-.33-.07-.85-.07-1.17s0-.88.07-1.2l2.28-.33V34l-2.28-.33c0-.33-.07-.88-.07-1.2s0-.85.07-1.17h5.59l8.59,14.61a14.22,14.22,0,0,1,1.07,2.37h.23a21.66,21.66,0,0,1-.16-2.54V34l-1.89-.33c0-.33-.07-.88-.07-1.2s0-.85.07-1.17h6.8c0,.33.07.85.07,1.17S121.56,33.37,121.53,33.7Z"/><path class="cls-1" d="M141.11,53.25H135c0-.33-.07-.85-.07-1.17s0-.88.07-1.2l1.56-.26-1.24-4.07h-7.61l-1.24,4.07,1.56.26c0,.33.06.88.06,1.2s0,.85-.06,1.17h-5.86c0-.33-.07-.85-.07-1.17s0-.88.07-1.2l1.27-.26c2-6.51,4.07-12.88,6.38-19.29h3.77c2.25,6.38,4.33,12.79,6.28,19.29l1.27.26c0,.33.06.88.06,1.2S141.15,52.92,141.11,53.25ZM132,35.94a11.64,11.64,0,0,1-.42-1.82h-.26a11.51,11.51,0,0,1-.42,1.82L128.46,44h6.05Z"/><path class="cls-1" d="M150.75,53.44c-2.08,0-5.66-.07-8.49-.2,0-.33-.07-.85-.07-1.17s0-.88.07-1.2l2.28-.33V34l-2.28-.33c0-.33-.07-.88-.07-1.2s0-.85.07-1.17c2.8-.13,5.37-.19,8.16-.19,4.95,0,7.55,1.69,7.55,5.76a5.21,5.21,0,0,1-3.06,4.75v.23a5.14,5.14,0,0,1,3.68,5.21C158.59,51.72,155.3,53.44,150.75,53.44Zm-.2-19.78c-.75,0-2.08,0-2.93.06v7.09h3.45a3.32,3.32,0,0,0,3.61-3.68C154.68,34.7,153.25,33.66,150.55,33.66Zm.52,9.63h-3.45v7.52c.62,0,2.28.1,3.16.1,3.12,0,4.52-1.27,4.52-3.94S153.67,43.29,151.07,43.29Z"/><path class="cls-1" d="M169.33,53.25h-7.74c0-.33-.07-.85-.07-1.17s0-.88.07-1.2l2.28-.33V34l-2.28-.33c0-.33-.07-.88-.07-1.2s0-.85.07-1.17h7.74c0,.33.07.85.07,1.17s0,.88-.07,1.2L167,34V50.55l2.28.33c0,.33.07.88.07,1.2S169.36,52.92,169.33,53.25Z"/><path class="cls-1" d="M187.32,53.25H172.58c0-.33-.07-.85-.07-1.17s0-.88.07-1.2l2.28-.33V34l-2.28-.33c0-.33-.07-.88-.07-1.2s0-.85.07-1.17h7.74c0,.33.07.85.07,1.17s0,.88-.07,1.2L178,34V50.61h6.15l.33-2.12a10.33,10.33,0,0,1,1.43-.1,10.08,10.08,0,0,1,1.37.1Z"/><path class="cls-1" d="M197.28,53.25h-7.74c0-.33-.07-.85-.07-1.17s0-.88.07-1.2l2.28-.33V34l-2.28-.33c0-.33-.07-.88-.07-1.2s0-.85.07-1.17h7.74c0,.33.07.85.07,1.17s0,.88-.07,1.2L195,34V50.55l2.28.33c0,.33.07.88.07,1.2S197.31,52.92,197.28,53.25Z"/><path class="cls-1" d="M215.69,35.62a10.08,10.08,0,0,1-1.37.1,10.31,10.31,0,0,1-1.43-.1L212.63,34h-3.38V50.55l2.28.33c0,.33.07.88.07,1.2s0,.85-.07,1.17h-7.74c0-.33-.07-.85-.07-1.17s0-.88.07-1.2l2.28-.33V34h-3.35l-.52,1.76a13.93,13.93,0,0,1-2.57-.23c0-.88.16-2.63.36-4.16h15.71Z"/><path class="cls-1" d="M234.17,33.7l-1.4.33c-1.79,3.71-3.71,7.42-5.69,11.06v5.46l2.28.33c0,.33.06.88.06,1.2s0,.85-.06,1.17h-7.74c0-.33-.07-.85-.07-1.17s0-.88.07-1.2l2.28-.33V45.08c-2-3.64-3.9-7.35-5.66-11.06l-1.4-.33c0-.33-.06-.88-.06-1.2s0-.85.06-1.17h6.47c0,.33.07.85.07,1.17s0,.88-.07,1.2l-1.59.33,3.12,6.6a10.79,10.79,0,0,1,.72,1.79h.23a10.79,10.79,0,0,1,.72-1.79l3.12-6.6L228,33.7c0-.33-.07-.88-.07-1.2s0-.85.07-1.17h6.15c0,.33.06.85.06,1.17S234.21,33.37,234.17,33.7Z"/><path class="cls-1" d="M116.57,82.37h-5.86a4.91,4.91,0,0,1-.07-.72,5.38,5.38,0,0,1,.07-.72l2.15-.23-2-5.86h-8.59l-2,5.86,2.15.23a5.38,5.38,0,0,1,.07.72,4.91,4.91,0,0,1-.07.72H96.62a4.78,4.78,0,0,1-.07-.72,5.22,5.22,0,0,1,.07-.72l1.85-.23c2.12-6.54,4.59-13.53,7.12-20.27h2c2.54,6.73,5,13.73,7.12,20.27l1.89.23a5.36,5.36,0,0,1,.07.72A4.9,4.9,0,0,1,116.57,82.37Zm-9.69-19a4.52,4.52,0,0,1-.23-1.07h-.2a4.53,4.53,0,0,1-.23,1.07l-3.45,10h7.55Z"/><path class="cls-1" d="M128.93,64.7a4.3,4.3,0,0,1-1.5,0L127.08,62h-4.75V80.71l2.38.23a5.36,5.36,0,0,1,.06.72,4.9,4.9,0,0,1-.06.72h-6.6a4.9,4.9,0,0,1-.07-.72,5.36,5.36,0,0,1,.07-.72l2.38-.23V62H116l-.62,2.73a10.54,10.54,0,0,1-1.43-.1c0-.81.2-2.83.39-4.23h14.57Z"/><path class="cls-1" d="M161.34,82.37h-6.08a4.91,4.91,0,0,1-.07-.72,5.38,5.38,0,0,1,.07-.72l2.18-.23L156,64.48c0-.36-.06-1-.06-1.82h-.2a10.31,10.31,0,0,1-.39,1.82l-5.79,17.89h-1.79L142,64.48a10.31,10.31,0,0,1-.39-1.82h-.2c0,.78,0,1.46-.07,1.82L139.9,80.71l2.18.23a5.22,5.22,0,0,1,.07.72,4.78,4.78,0,0,1-.07.72h-6a4.91,4.91,0,0,1-.07-.72,5.38,5.38,0,0,1,.07-.72l2.11-.23q.73-9.17,1.79-18.61l-2.31-.23a4.91,4.91,0,0,1-.06-.72,5.39,5.39,0,0,1,.06-.72h4.75L148.13,78a13.5,13.5,0,0,1,.49,2.34h.2A13.4,13.4,0,0,1,149.3,78L155,60.44h4.75a5.39,5.39,0,0,1,.07.72,4.91,4.91,0,0,1-.07.72l-2.31.23c.72,6.25,1.3,12.49,1.79,18.61l2.12.23a5.38,5.38,0,0,1,.06.72A4.92,4.92,0,0,1,161.34,82.37Z"/><path class="cls-1" d="M175.81,81.39a10.9,10.9,0,0,1-5.36,1.28c-5.6,0-8.4-3.57-8.4-10.37,0-7.18,3.34-10.31,8.52-10.31a12,12,0,0,1,5.06,1v3.69a3.9,3.9,0,0,1-1.37,0l-.33-2.56a9,9,0,0,0-3.4-.6c-4.41,0-6.67,2.23-6.67,8.79,0,6,2,8.85,6.55,8.85a10.51,10.51,0,0,0,3.69-.63l.33-2.38a4,4,0,0,1,1.37,0Z"/><path class="cls-1" d="M194.22,81.33a14.06,14.06,0,0,1-6,1.37c-6.86,0-10-3.77-10-11.32S182,60.12,188.2,60.12a13.65,13.65,0,0,1,5.5,1v4.07a4.31,4.31,0,0,1-1.5,0l-.36-2.83a11.3,11.3,0,0,0-3.68-.59c-4.94,0-7.87,2.21-7.87,9.6,0,7.78,3,9.66,8.1,9.66a10.39,10.39,0,0,0,4-.78V73.32h-5.11a7,7,0,0,1-.2-1.66h7.16Z"/><path class="cls-1" d="M203.72,82.37h-6.6a4.9,4.9,0,0,1-.07-.72,5.36,5.36,0,0,1,.07-.72l2.38-.23V62.1l-2.37-.23a4.89,4.89,0,0,1-.07-.72,5.38,5.38,0,0,1,.07-.72h6.6a5.23,5.23,0,0,1,.07.72,4.77,4.77,0,0,1-.07.72l-2.37.23V80.71l2.37.23a5.22,5.22,0,0,1,.07.72A4.78,4.78,0,0,1,203.72,82.37Z"/><path class="cls-1" d="M220.31,82.37h-14a4.91,4.91,0,0,1-.07-.72,5.38,5.38,0,0,1,.07-.72l2.37-.23V62.1l-2.37-.23a4.91,4.91,0,0,1-.07-.72,5.39,5.39,0,0,1,.07-.72H213a5.39,5.39,0,0,1,.06.72,4.91,4.91,0,0,1-.06.72l-2.5.23V80.78h7.94l.36-3a4.38,4.38,0,0,1,1.5,0Z"/><path class="cls-1" d="M236,82.37H222a4.9,4.9,0,0,1-.07-.72,5.36,5.36,0,0,1,.07-.72l2.37-.23V62.1L222,61.87a4.89,4.89,0,0,1-.07-.72,5.38,5.38,0,0,1,.07-.72h6.73a5.37,5.37,0,0,1,.06.72,4.9,4.9,0,0,1-.06.72l-2.5.23V80.78h7.94l.36-3a4.38,4.38,0,0,1,1.5,0Z"/><path class="cls-2" d="M318,77a38.1,38.1,0,0,1,5.89,7.47,9.46,9.46,0,0,1,1.29,4,19.9,19.9,0,0,1,.12,2.35,15.78,15.78,0,0,1-2,6.79,16.77,16.77,0,0,1-6.85,6.6,22.9,22.9,0,0,1-7.68,2.57,28.2,28.2,0,0,1-2.82.3c-1.1.06-2.22.1-3.32.06-.94,0-1.87-.19-2.8-.31-4-.48-7.58-2.22-11.07-4.12a31.51,31.51,0,0,1-6.32-4.35,11.93,11.93,0,0,1-3.69-5.61,14.83,14.83,0,0,1-.52-5.1,24,24,0,0,1,.44-2.49c0-.12,0-.23.05-.35l.06,0,.55-.13a60.75,60.75,0,0,0,7.9-2.82,54.63,54.63,0,0,0,9.06-4.9,9.63,9.63,0,0,0,3.22-3.42,2,2,0,0,1,.21.13c1.13.89,2.25,1.8,3.4,2.67a20.65,20.65,0,0,0,4.1,2.7,11.86,11.86,0,0,0,3.73,1,7,7,0,0,0,3.47-.67A16.17,16.17,0,0,0,318,77Z"/><path class="cls-3" d="M280.67,16.52A14,14,0,0,1,282.42,12a18.39,18.39,0,0,1,6.79-6.45,36.62,36.62,0,0,1,10.07-3.87q3.24-.77,6.53-1.34A31.06,31.06,0,0,1,309.94,0a26.53,26.53,0,0,1,3.5.13,13.66,13.66,0,0,1,3.68.88,10.72,10.72,0,0,1,6.05,6,44.08,44.08,0,0,1,3,9.87,34.08,34.08,0,0,1,.43,3.65,31.66,31.66,0,0,1,.07,3.82A19.75,19.75,0,0,1,322.39,36a12.43,12.43,0,0,1-3.36,2.8l-.33.21h-.06l0-.05a56.3,56.3,0,0,0-6.83-4.54,18.19,18.19,0,0,0-4.25-1.82,14.25,14.25,0,0,0-3.54-.32c-.05-.73-.07-1.46-.17-2.18a18.29,18.29,0,0,0-1.41-5,11.2,11.2,0,0,0-2.5-3.66,15.24,15.24,0,0,0-5.46-3.19,31.75,31.75,0,0,0-9.85-1.65C283.27,16.5,282,16.53,280.67,16.52Z"/><path class="cls-4" d="M318.63,38.95h.06c1.06.86,2.13,1.72,3.19,2.59a51.61,51.61,0,0,1,5.24,4.82,13,13,0,0,1,3.16,9.38,18,18,0,0,1-1.86,6.7,41.47,41.47,0,0,1-3.87,6.38,73.39,73.39,0,0,1-4.73,6.31c-.57.63-1.21,1.19-1.81,1.79l-.21-.19a84,84,0,0,0-8.13-7.42,26.42,26.42,0,0,0-6.8-4.1c-1.05-.4-2.16-.67-3.24-1l-.13-.08a7.55,7.55,0,0,0-.28-.72,20.11,20.11,0,0,0-3.12-4.48,43.39,43.39,0,0,0-4.58-4.3l-1.84-1.49.22-.18a44.78,44.78,0,0,0,8.64-7.88c1-1.18,1.78-2.47,2.66-3.71h.05c1.25.17,2.49.39,3.74.48,1.1.08,2.21,0,3.32,0a16.45,16.45,0,0,0,1.87-.15,23.16,23.16,0,0,0,5.74-1.47C316.85,39.85,317.73,39.38,318.63,38.95Z"/><path class="cls-5" d="M278.76,84.78l-.06,0c-1.86.36-3.71.81-5.59,1.07a20.9,20.9,0,0,1-8.78-.47,12.35,12.35,0,0,1-4.78-2.9,22.68,22.68,0,0,1-7-12.47,30.57,30.57,0,0,1-.52-4.28,21.2,21.2,0,0,1,1.2-8.63,21.7,21.7,0,0,1,5.21-8.35c.56-.55,1.2-1,1.8-1.54.27.81.51,1.62.81,2.42a17.7,17.7,0,0,0,4.21,6.69,11.48,11.48,0,0,0,8.35,3.38,19.74,19.74,0,0,0,5.47-.88,25,25,0,0,0,4.81-2.07,32.37,32.37,0,0,0,3.29,4.8c1,1.16,2,2.28,3,3.42l-.14.1a15.58,15.58,0,0,0-4.85,4.06,24.2,24.2,0,0,0-3.45,6.08c-1,2.56-1.77,5.22-2.56,7.87C279,83.66,278.9,84.22,278.76,84.78Z"/><path class="cls-6" d="M260.32,47.18c-.24-1-.5-2-.7-3s-.34-1.91-.48-2.86c-.08-.57-.12-1.14-.16-1.72-.06-.9-.13-1.8-.15-2.71,0-1.67-.14-3.35-.05-5,.17-3.24.85-6.34,3.05-8.89a15.66,15.66,0,0,1,6.34-4.28,26.15,26.15,0,0,1,5.65-1.43c1.24-.18,2.47-.36,3.72-.52.77-.09,1.54-.13,2.31-.19l.76-.06a1.36,1.36,0,0,1,0,.21,11.79,11.79,0,0,0,0,5.05,22.83,22.83,0,0,0,5.63,11.13,22.81,22.81,0,0,0,4.34,3.89,1.74,1.74,0,0,1-.21.23,23.13,23.13,0,0,0-5,5.09,18.34,18.34,0,0,0-3,6.31,3.26,3.26,0,0,1-.43-.15,36.46,36.46,0,0,0-7.08-2.83,22.07,22.07,0,0,0-6.05-.91,21.83,21.83,0,0,0-2.57.15,9,9,0,0,0-3.16.84C262.15,46.06,261.24,46.64,260.32,47.18Z"/><path class="cls-7" d="M290.54,36.83a22.81,22.81,0,0,1-4.34-3.89,22.83,22.83,0,0,1-5.63-11.13,11.79,11.79,0,0,1,0-5.05,1.36,1.36,0,0,0,0-.21l.05,0c1.3,0,2.6,0,3.9,0a31.75,31.75,0,0,1,9.85,1.65,15.24,15.24,0,0,1,5.46,3.19,11.2,11.2,0,0,1,2.5,3.66,18.29,18.29,0,0,1,1.41,5c.1.72.11,1.46.17,2.18h0c-1.1.11-2.2.18-3.29.36a20.68,20.68,0,0,0-6.22,2c-1.31.67-2.55,1.47-3.82,2.22Z"/><path class="cls-8" d="M260.32,47.18c.92-.54,1.83-1.12,2.77-1.62a9,9,0,0,1,3.16-.84,21.83,21.83,0,0,1,2.57-.15,22.07,22.07,0,0,1,6.05.91,36.46,36.46,0,0,1,7.08,2.83,3.26,3.26,0,0,0,.43.15v.07A7.51,7.51,0,0,0,282.2,52,14.11,14.11,0,0,0,284,56.75v0a25,25,0,0,1-4.81,2.07,19.74,19.74,0,0,1-5.47.88,11.48,11.48,0,0,1-8.35-3.38,17.7,17.7,0,0,1-4.21-6.69c-.3-.79-.54-1.61-.81-2.42A.21.21,0,0,1,260.32,47.18Z"/><path class="cls-9" d="M299.63,64.21c1.08.33,2.18.6,3.24,1a26.42,26.42,0,0,1,6.8,4.1,84,84,0,0,1,8.13,7.42l.21.19a.37.37,0,0,1,0,.06,16.18,16.18,0,0,1-3.59,2.38,7,7,0,0,1-3.47.67,11.86,11.86,0,0,1-3.73-1,20.65,20.65,0,0,1-4.1-2.7c-1.15-.87-2.27-1.78-3.4-2.67a2,2,0,0,0-.21-.13v-.07c.05-.08.11-.15.15-.24a8.68,8.68,0,0,0,1-4,17.28,17.28,0,0,0-.38-3A16.66,16.66,0,0,0,299.63,64.21Z"/><path class="cls-10" d="M299.49,73.44v.07a9.63,9.63,0,0,1-3.22,3.42,54.63,54.63,0,0,1-9.06,4.9,60.75,60.75,0,0,1-7.9,2.82l-.55.13c.14-.56.26-1.12.43-1.67.79-2.64,1.51-5.31,2.56-7.87a24.2,24.2,0,0,1,3.45-6.08,15.58,15.58,0,0,1,4.85-4.06l.14-.1h.06c.77.8,1.51,1.63,2.32,2.39,1.39,1.3,2.82,2.58,4.25,3.84C297.69,72,298.6,72.71,299.49,73.44Z"/><path class="cls-11" d="M318.63,38.95c-.9.43-1.78.91-2.71,1.29a23.16,23.16,0,0,1-5.74,1.47,16.45,16.45,0,0,1-1.87.15c-1.11,0-2.22.07-3.32,0-1.25-.09-2.5-.32-3.74-.48.52-1.06,1.09-2.11,1.56-3.2a14.73,14.73,0,0,0,1.13-5.94h0a14.25,14.25,0,0,1,3.54.32,18.19,18.19,0,0,1,4.25,1.82,56.3,56.3,0,0,1,6.83,4.54Z"/><path class="cls-12" d="M282.38,48.53v-.07a18.34,18.34,0,0,1,3-6.31,23.13,23.13,0,0,1,5-5.09,1.74,1.74,0,0,0,.21-.23h.08a2.89,2.89,0,0,0,.45.39c1.3.72,2.57,1.5,3.91,2.12a40.47,40.47,0,0,0,4,1.46c.73.25,1.5.39,2.25.58-.88,1.24-1.7,2.53-2.66,3.71A44.78,44.78,0,0,1,289.9,53l-.22.18h-.07A50.82,50.82,0,0,0,282.38,48.53Z"/><path class="cls-13" d="M289.61,53.14h.07l1.84,1.49a43.39,43.39,0,0,1,4.58,4.3,20.11,20.11,0,0,1,3.12,4.48,7.51,7.51,0,0,1,.28.72h-.11a18.15,18.15,0,0,0-5.11-.36,10.28,10.28,0,0,0-4,1.23h-.06c-1-1.14-2-2.26-3-3.42a32.37,32.37,0,0,1-3.29-4.8v0c.66-.39,1.34-.75,2-1.16C287.17,54.79,288.39,54,289.61,53.14Z"/><path class="cls-14" d="M301.2,41.37c-.75-.19-1.52-.34-2.25-.58a40.47,40.47,0,0,1-4-1.46c-1.35-.61-2.62-1.4-3.91-2.12a2.89,2.89,0,0,1-.45-.39c1.27-.74,2.51-1.55,3.82-2.22a20.68,20.68,0,0,1,6.22-2c1.09-.17,2.19-.24,3.29-.36a14.73,14.73,0,0,1-1.13,5.94c-.47,1.09-1,2.13-1.56,3.2Z"/><path class="cls-15" d="M290.26,65a10.28,10.28,0,0,1,4-1.23,18.15,18.15,0,0,1,5.11.36h.11l.13.08a16.68,16.68,0,0,1,.59,1.92,17.28,17.28,0,0,1,.38,3,8.68,8.68,0,0,1-1,4c0,.08-.1.16-.15.24-.89-.74-1.79-1.45-2.66-2.21C295.4,70,294,68.7,292.58,67.39,291.77,66.64,291,65.81,290.26,65Z"/><path class="cls-16" d="M289.61,53.14c-1.23.82-2.44,1.65-3.68,2.45-.64.42-1.32.78-2,1.16A14.12,14.12,0,0,1,282.2,52a7.51,7.51,0,0,1,.19-3.48A50.82,50.82,0,0,1,289.61,53.14Z"/></g></g></svg>